<svg width="30" height="30" viewBox="0 0 30 30" fill="none" xmlns="http://www.w3.org/2000/svg">
<g clip-path="url(#clip0_521_1089)">
<path fill-rule="evenodd" clip-rule="evenodd" d="M4 15.0002C4 14.7516 4.09877 14.5131 4.27459 14.3373C4.4504 14.1615 4.68886 14.0627 4.9375 14.0627H27.0494L21.1488 8.16396C20.9727 7.98792 20.8738 7.74916 20.8738 7.50021C20.8738 7.25125 20.9727 7.01249 21.1488 6.83646C21.3248 6.66042 21.5635 6.56152 21.8125 6.56152C22.0615 6.56152 22.3002 6.66042 22.4762 6.83646L29.9762 14.3365C30.0636 14.4235 30.1328 14.527 30.1801 14.6409C30.2273 14.7548 30.2517 14.8769 30.2517 15.0002C30.2517 15.1235 30.2273 15.2456 30.1801 15.3595C30.1328 15.4734 30.0636 15.5769 29.9762 15.664L22.4762 23.164C22.3002 23.34 22.0615 23.4389 21.8125 23.4389C21.5635 23.4389 21.3248 23.34 21.1488 23.164C20.9727 22.9879 20.8738 22.7492 20.8738 22.5002C20.8738 22.2513 20.9727 22.0125 21.1488 21.8365L27.0494 15.9377H4.9375C4.68886 15.9377 4.4504 15.8389 4.27459 15.6631C4.09877 15.4873 4 15.2488 4 15.0002Z" fill="white"/>
</g>
<defs>
<clipPath id="clip0_521_1089">
<rect width="30" height="30" fill="white"/>
</clipPath>
</defs>
</svg>
