<svg width="50" height="57" viewBox="0 0 50 57" fill="none" xmlns="http://www.w3.org/2000/svg">
<g clip-path="url(#clip0_521_864)">
<path fill-rule="evenodd" clip-rule="evenodd" d="M36.8333 31.1451C40.4626 31.1451 43.7506 32.5934 46.1338 34.9323C48.5249 37.2701 50 40.504 50 44.072C50 47.641 48.5249 50.875 46.1429 53.2128L45.9932 53.3486C43.6213 55.6073 40.3912 57 36.8333 57C33.1984 57 29.9059 55.5517 27.5249 53.2128C25.1429 50.875 23.6678 47.641 23.6678 44.072C23.6678 40.5029 25.1429 37.2701 27.5249 34.9323C29.9059 32.5934 33.1984 31.1451 36.8333 31.1451ZM27.5635 4.23921V10.2707C27.6757 11.7101 28.1871 12.8412 29.085 13.5937C30.0147 14.3741 31.4048 14.8116 33.2449 14.8439L37.5442 14.8395L27.5635 4.23921ZM37.9048 17.6526L33.2222 17.6482C30.6723 17.6092 28.6633 16.9357 27.2245 15.7289C25.7245 14.4699 24.8798 12.6842 24.7086 10.4711L24.6961 10.2774V2.81538H7.12812C5.95578 2.81538 4.88889 3.28628 4.11791 4.04328C3.34694 4.80028 2.86735 5.84784 2.86735 6.99893V44.4583C2.86735 45.6049 3.34921 46.6525 4.12132 47.4106C4.89229 48.1676 5.96032 48.6407 7.12812 48.6407H20.6667C20.9546 49.6192 21.3322 50.561 21.7914 51.4561H7.12812C5.16893 51.4561 3.38435 50.6679 2.09297 49.401C0.802721 48.1331 0 46.3819 0 44.4583V6.99893C0 5.07748 0.802721 3.32747 2.09184 2.0606C3.38889 0.788172 5.1712 0 7.12812 0H26.8424C27.3084 0 27.7222 0.218195 27.9841 0.556619L40.3866 13.7307C40.6406 14.0012 40.7653 14.3418 40.7653 14.6825L40.7687 28.0102C39.8413 27.7909 38.8844 27.6484 37.9048 27.5883V17.6526ZM11.8549 23.7186C11.0635 23.7186 10.4218 23.0886 10.4218 22.3115C10.4218 21.5334 11.0635 20.9033 11.8549 20.9033H28.9172C29.7086 20.9033 30.3515 21.5334 30.3515 22.3115C30.3515 23.0886 29.7086 23.7186 28.9172 23.7186H11.8549ZM11.8549 31.7674C11.0635 31.7674 10.4218 31.1373 10.4218 30.3591C10.4218 29.5821 11.0635 28.952 11.8549 28.952H28.0136C28.4342 28.952 28.8129 29.1301 29.076 29.414C27.8263 30.0536 26.6631 30.8442 25.6134 31.7674H11.8549ZM11.8549 39.8161C11.0635 39.8161 10.4218 39.186 10.4218 38.4078C10.4218 37.6308 11.0635 37.0007 11.8549 37.0007H21.6281C21.195 37.8968 20.8401 38.8386 20.5748 39.8161H11.8549ZM33.1678 41.723L35.4989 43.8872L40.1905 39.2093C40.6281 38.773 40.9014 38.4245 41.4433 38.9678L43.195 40.7289C43.7687 41.2866 43.7392 41.6128 43.1961 42.1349L36.4966 48.5995C35.3549 49.6994 35.5522 49.7695 34.3946 48.6374L30.2177 44.5607C29.9796 44.3046 30.0045 44.0453 30.2653 43.7859L32.2982 41.7186C32.6066 41.4047 32.8515 41.4247 33.1678 41.723Z" fill="white"/>
</g>
<defs>
<clipPath id="clip0_521_864">
<rect width="50" height="57" fill="white"/>
</clipPath>
</defs>
</svg>
