<svg width="145" height="31" viewBox="0 0 145 31" fill="none" xmlns="http://www.w3.org/2000/svg">
<path d="M3.29208 27.6158H1.24364L0.877851 28.6822H0.21943L1.93865 23.9754H2.63365L4.3163 28.6822H3.65787L3.29208 27.6158ZM3.10919 27.101L2.26786 24.7108L1.42654 27.101H3.10919Z" fill="white"/>
<path d="M8.70591 25.4463V27.6526C8.70591 27.8365 8.74249 27.9468 8.81565 28.0203C8.88881 28.0939 9.03512 28.1306 9.21802 28.1306H9.65697V28.6454H9.10828C8.77906 28.6454 8.52301 28.5719 8.34012 28.4248C8.15722 28.2777 8.08406 28.0203 8.08406 27.6526V25.4463H7.60853V24.9315H8.08406V23.9754H8.70591V24.9315H9.65697V25.4463H8.70591Z" fill="white"/>
<path d="M12.0345 25.0418C12.2174 24.9314 12.4734 24.8579 12.7661 24.8579V25.483H12.6198C11.9248 25.483 11.5955 25.8507 11.5955 26.6229V28.6454H10.9737V24.9314H11.5955V25.5198C11.6687 25.3359 11.8516 25.1888 12.0345 25.0418Z" fill="white"/>
<path d="M17.3018 24.9314V28.6822H16.68V28.1306C16.5703 28.3144 16.3874 28.4615 16.2045 28.5719C15.985 28.6822 15.7655 28.7189 15.5095 28.7189C15.2168 28.7189 14.9608 28.6454 14.7413 28.5351C14.5218 28.4248 14.3389 28.2409 14.1926 27.9835C14.0463 27.7261 14.0097 27.4687 14.0097 27.101V24.9314H14.6316V27.0274C14.6316 27.3951 14.7413 27.6893 14.9242 27.8732C15.1071 28.057 15.3631 28.1674 15.6924 28.1674C16.0216 28.1674 16.2776 28.057 16.4605 27.8732C16.6434 27.6526 16.7532 27.3584 16.7532 26.9907V24.9314H17.3018Z" fill="white"/>
<path d="M19.4601 28.5719C19.2406 28.4616 19.0577 28.3513 18.9114 28.1674C18.7651 27.9835 18.6919 27.7997 18.6919 27.579H19.3138C19.3138 27.7629 19.4235 27.91 19.5698 28.0203C19.7162 28.1306 19.9356 28.2042 20.1917 28.2042C20.4112 28.2042 20.5941 28.1674 20.7404 28.0571C20.8867 27.9468 20.9598 27.8365 20.9598 27.6526C20.9598 27.5055 20.8867 27.3584 20.7404 27.2849C20.5941 27.2113 20.3746 27.1378 20.0819 27.0642C19.7893 26.9907 19.5698 26.9172 19.4235 26.8436C19.2406 26.7701 19.0943 26.6598 18.9846 26.5127C18.8748 26.3656 18.8017 26.1817 18.8017 25.9243C18.8017 25.7404 18.8748 25.5566 18.9846 25.4095C19.0943 25.2624 19.2406 25.1153 19.4601 25.0418C19.6796 24.9315 19.8991 24.8947 20.1551 24.8947C20.5575 24.8947 20.8867 25.005 21.1427 25.2256C21.3988 25.4463 21.5451 25.7037 21.5451 26.0714H20.9233C20.9233 25.8875 20.8501 25.7037 20.7038 25.5934C20.5575 25.483 20.3746 25.4095 20.1185 25.4095C19.8991 25.4095 19.7162 25.4463 19.6064 25.5566C19.4601 25.6669 19.4235 25.7772 19.4235 25.9243C19.4235 26.0346 19.4601 26.1449 19.5333 26.2185C19.6064 26.292 19.7162 26.3656 19.8259 26.4023C19.9356 26.4391 20.1185 26.5127 20.338 26.5494C20.5941 26.623 20.8135 26.6965 20.9964 26.7701C21.1793 26.8436 21.2891 26.9539 21.4354 27.101C21.5817 27.2481 21.6183 27.432 21.6183 27.6526C21.6183 27.8732 21.5451 28.0571 21.4354 28.2042C21.3256 28.3513 21.1793 28.4983 20.9598 28.5719C20.7404 28.6822 20.5209 28.719 20.2648 28.719C19.9356 28.719 19.6796 28.6822 19.4601 28.5719Z" fill="white"/>
<path d="M23.7398 25.4463V27.6526C23.7398 27.8365 23.7764 27.9468 23.8495 28.0203C23.9227 28.0939 24.069 28.1306 24.2519 28.1306H24.6909V28.6454H24.1422C23.813 28.6454 23.5569 28.5719 23.374 28.4248C23.1911 28.2777 23.1179 28.0203 23.1179 27.6526V25.4463H22.6424V24.9315H23.1179V23.9754H23.7398V24.9315H24.6909V25.4463H23.7398Z" fill="white"/>
<path d="M25.9713 25.7772C26.1176 25.483 26.3371 25.2624 26.5932 25.1153C26.8492 24.9682 27.1784 24.8947 27.5076 24.8947C27.8368 24.8947 28.1295 24.9682 28.349 25.1153C28.605 25.2624 28.7513 25.4463 28.8976 25.6301V24.9682H29.5195V28.6822H28.8976V27.9835C28.7879 28.2042 28.605 28.388 28.349 28.5351C28.0929 28.6822 27.8368 28.7558 27.5076 28.7558C27.1784 28.7558 26.8858 28.6822 26.6297 28.4983C26.3737 28.3513 26.1542 28.0939 26.0079 27.7997C25.8616 27.5055 25.7884 27.1746 25.7884 26.8068C25.7518 26.4023 25.825 26.0714 25.9713 25.7772ZM28.7147 26.0714C28.605 25.8508 28.4587 25.7037 28.2758 25.5934C28.0929 25.483 27.8734 25.4095 27.6539 25.4095C27.4345 25.4095 27.215 25.4463 27.0321 25.5566C26.8492 25.6669 26.7029 25.814 26.5932 26.0346C26.4834 26.2553 26.4103 26.4759 26.4103 26.7701C26.4103 27.0642 26.4834 27.3216 26.5932 27.5055C26.7029 27.7261 26.8492 27.8732 27.0321 27.9835C27.215 28.0939 27.4345 28.1674 27.6539 28.1674C27.8734 28.1674 28.0929 28.0939 28.2758 27.9835C28.4587 27.8732 28.605 27.7261 28.7147 27.5055C28.8245 27.2849 28.8976 27.0642 28.8976 26.7701C28.8976 26.5127 28.8245 26.292 28.7147 26.0714Z" fill="white"/>
<path d="M32.263 25.0783C32.519 24.9312 32.7751 24.8577 33.1043 24.8577C33.4335 24.8577 33.7261 24.9312 34.0188 25.0783C34.2748 25.2254 34.4943 25.446 34.6406 25.7402C34.7869 26.0344 34.8601 26.3653 34.8601 26.733C34.8601 27.1008 34.7869 27.4317 34.6406 27.7259C34.4943 28.0201 34.2748 28.2407 34.0188 28.4245C33.7627 28.5716 33.4335 28.6819 33.1043 28.6819C32.7751 28.6819 32.519 28.6084 32.263 28.4613C32.0069 28.3142 31.824 28.1304 31.7143 27.9097V28.6084H31.0924V23.5706H31.7143V25.5563C31.824 25.4092 32.0069 25.2254 32.263 25.0783ZM34.0553 26.0711C33.9456 25.8505 33.7993 25.7034 33.6164 25.5931C33.4335 25.4828 33.214 25.446 32.9945 25.446C32.7751 25.446 32.5556 25.5196 32.3727 25.6299C32.1898 25.7402 32.0435 25.8873 31.8972 26.1079C31.7509 26.3285 31.7143 26.5492 31.7143 26.8433C31.7143 27.1375 31.7874 27.3582 31.8972 27.5788C32.0069 27.7994 32.1532 27.9465 32.3727 28.0568C32.5556 28.1671 32.7751 28.2407 32.9945 28.2407C33.214 28.2407 33.4335 28.1671 33.6164 28.0568C33.7993 27.9465 33.9456 27.7994 34.0553 27.5788C34.1651 27.3582 34.2382 27.1375 34.2382 26.8433C34.2382 26.5124 34.1651 26.255 34.0553 26.0711Z" fill="white"/>
<path d="M36.8354 23.6441V28.6818H36.2135V23.6441H36.8354Z" fill="white"/>
<path d="M41.7734 27.0274H38.8105C38.8471 27.3952 38.9568 27.6893 39.1763 27.8732C39.3957 28.0938 39.6884 28.1674 40.0176 28.1674C40.2736 28.1674 40.4931 28.0938 40.676 27.9835C40.8589 27.8732 40.9687 27.6893 41.0418 27.4687H41.7002C41.5905 27.8364 41.4076 28.1306 41.115 28.3512C40.8223 28.5719 40.4565 28.6822 40.0176 28.6822C39.6518 28.6822 39.3592 28.6086 39.0665 28.4615C38.7739 28.3145 38.5544 28.0938 38.4081 27.7997C38.2618 27.5055 38.1886 27.1745 38.1886 26.77C38.1886 26.4023 38.2618 26.0346 38.4081 25.7404C38.5544 25.4462 38.7739 25.2256 39.0665 25.0785C39.3592 24.9314 39.6518 24.8579 40.0176 24.8579C40.3834 24.8579 40.676 24.9314 40.9686 25.0785C41.2247 25.2256 41.4442 25.4462 41.5905 25.7036C41.7368 25.9611 41.81 26.292 41.81 26.6229C41.81 26.77 41.81 26.9171 41.7734 27.0274ZM41.0052 25.9243C40.8955 25.7404 40.7492 25.6301 40.5663 25.5198C40.3834 25.4462 40.2005 25.3727 39.981 25.3727C39.6518 25.3727 39.3957 25.483 39.1763 25.6669C38.9568 25.8507 38.8471 26.1449 38.8105 26.5126H41.1515C41.1515 26.292 41.115 26.1081 41.0052 25.9243Z" fill="white"/>
<path d="M45.5045 25.7772C45.6508 25.483 45.8703 25.2624 46.1263 25.1153C46.3824 24.9682 46.7116 24.8947 47.0408 24.8947C47.37 24.8947 47.6626 24.9682 47.8821 25.1153C48.1382 25.2624 48.2845 25.4463 48.4308 25.6301V24.9682H49.0527V28.6822H48.4308V27.9835C48.3211 28.2042 48.1382 28.388 47.8821 28.5351C47.6261 28.6822 47.37 28.7558 47.0408 28.7558C46.7116 28.7558 46.419 28.6822 46.1629 28.4983C45.9069 28.3513 45.6874 28.0939 45.5411 27.7997C45.3947 27.5055 45.3216 27.1746 45.3216 26.8068C45.285 26.4023 45.3582 26.0714 45.5045 25.7772ZM48.2479 26.0714C48.1382 25.8508 47.9919 25.7037 47.809 25.5934C47.6261 25.483 47.4066 25.4095 47.1871 25.4095C46.9676 25.4095 46.7482 25.4463 46.5653 25.5566C46.3824 25.6669 46.2361 25.814 46.1263 26.0346C46.0166 26.2553 45.9434 26.4759 45.9434 26.7701C45.9434 27.0642 46.0166 27.3216 46.1263 27.5055C46.2361 27.6894 46.3824 27.8732 46.5653 27.9835C46.7482 28.0939 46.9676 28.1674 47.1871 28.1674C47.4066 28.1674 47.6261 28.0939 47.809 27.9835C47.9919 27.8732 48.1382 27.7261 48.2479 27.5055C48.3577 27.2849 48.4308 27.0642 48.4308 26.7701C48.3942 26.5127 48.3577 26.292 48.2479 26.0714Z" fill="white"/>
<path d="M51.1743 28.5719C50.9549 28.4616 50.772 28.3513 50.6256 28.1674C50.4793 27.9835 50.4062 27.7997 50.4062 27.579H51.028C51.028 27.7629 51.1378 27.91 51.2841 28.0203C51.4304 28.1306 51.6499 28.2042 51.9059 28.2042C52.1254 28.2042 52.3083 28.1674 52.4546 28.0571C52.6009 27.9468 52.6741 27.8365 52.6741 27.6526C52.6741 27.5055 52.6009 27.3584 52.4546 27.2849C52.3083 27.2113 52.0888 27.1378 51.7962 27.0642C51.5035 26.9907 51.2841 26.9172 51.1377 26.8436C50.9548 26.7701 50.8085 26.6598 50.6988 26.5127C50.5891 26.3656 50.5159 26.1817 50.5159 25.9243C50.5159 25.7404 50.5891 25.5566 50.6988 25.4095C50.8085 25.2624 50.9549 25.1153 51.1743 25.0418C51.3938 24.9315 51.6133 24.8947 51.8693 24.8947C52.2717 24.8947 52.6009 25.005 52.857 25.2256C53.113 25.4463 53.2593 25.7037 53.2593 26.0714H52.6375C52.6375 25.8875 52.5278 25.7037 52.418 25.5934C52.2717 25.483 52.0888 25.4095 51.8328 25.4095C51.6133 25.4095 51.4304 25.4463 51.3206 25.5566C51.1743 25.6669 51.1377 25.7772 51.1377 25.9243C51.1377 26.0346 51.1743 26.1449 51.2475 26.2185C51.3206 26.292 51.4304 26.3656 51.5401 26.4023C51.6499 26.4391 51.8328 26.5127 52.0522 26.5494C52.3083 26.623 52.5278 26.6965 52.7107 26.7701C52.8936 26.8436 53.0033 26.9539 53.1496 27.101C53.2593 27.2481 53.3325 27.432 53.3325 27.6526C53.3325 27.8732 53.2593 28.0571 53.1496 28.2042C53.0399 28.3513 52.8936 28.4983 52.6741 28.5719C52.4546 28.6822 52.2351 28.719 51.9791 28.719C51.6499 28.719 51.3938 28.6822 51.1743 28.5719Z" fill="white"/>
<path d="M55.2345 28.5719C55.015 28.4616 54.8321 28.3513 54.6858 28.1674C54.5395 27.9835 54.4663 27.7997 54.4663 27.579H55.0882C55.0882 27.7629 55.1979 27.91 55.3442 28.0203C55.4906 28.1306 55.71 28.2042 55.9661 28.2042C56.1856 28.2042 56.3685 28.1674 56.5148 28.0571C56.6611 27.9468 56.7343 27.8365 56.7343 27.6526C56.7343 27.5055 56.6611 27.3584 56.5148 27.2849C56.3685 27.2113 56.149 27.1378 55.8564 27.0642C55.5637 26.9907 55.3442 26.9172 55.1979 26.8436C55.015 26.7701 54.8687 26.6598 54.759 26.5127C54.6493 26.3656 54.5761 26.1817 54.5761 25.9243C54.5761 25.7404 54.6493 25.5566 54.759 25.4095C54.8687 25.2624 55.015 25.1153 55.2345 25.0418C55.454 24.9315 55.6735 24.8947 55.9295 24.8947C56.3319 24.8947 56.6611 25.005 56.9172 25.2256C57.1732 25.4463 57.3195 25.7037 57.3195 26.0714H56.6977C56.6977 25.8875 56.5879 25.7037 56.4782 25.5934C56.3319 25.483 56.149 25.4095 55.8929 25.4095C55.6735 25.4095 55.4906 25.4463 55.3808 25.5566C55.2345 25.6669 55.1979 25.7772 55.1979 25.9243C55.1979 26.0346 55.2345 26.1449 55.3077 26.2185C55.3808 26.292 55.4906 26.3656 55.6003 26.4023C55.71 26.4391 55.8929 26.5127 56.1124 26.5494C56.3685 26.623 56.5879 26.6965 56.7708 26.7701C56.9537 26.8436 57.0635 26.9539 57.2098 27.101C57.3195 27.2481 57.3927 27.432 57.3927 27.6526C57.3927 27.8732 57.3195 28.0571 57.2098 28.2042C57.1001 28.3513 56.9537 28.4983 56.7343 28.5719C56.5148 28.6822 56.2953 28.719 56.0393 28.719C55.71 28.719 55.454 28.6822 55.2345 28.5719Z" fill="white"/>
<path d="M58.7827 24.2331C58.7096 24.1596 58.673 24.0493 58.673 23.939C58.673 23.8286 58.7096 23.7183 58.7827 23.6448C58.8559 23.5712 58.9656 23.5345 59.0754 23.5345C59.1851 23.5345 59.2948 23.5712 59.368 23.6448C59.4411 23.7183 59.4777 23.8286 59.4777 23.939C59.4777 24.0493 59.4411 24.1596 59.368 24.2331C59.2948 24.3067 59.1851 24.3434 59.0754 24.3434C58.9656 24.3434 58.8559 24.3067 58.7827 24.2331ZM59.368 24.9318V28.6825H58.7461V24.9686H59.368V24.9318Z" fill="white"/>
<path d="M63.3552 25.0785C63.6112 25.2256 63.7576 25.4095 63.9039 25.5933V24.9314H64.5257V28.7557C64.5257 29.0867 64.4526 29.3808 64.3062 29.675C64.1599 29.9324 63.9404 30.153 63.6844 30.3001C63.4283 30.4472 63.0991 30.5208 62.7333 30.5208C62.2578 30.5208 61.8554 30.4105 61.5262 30.1898C61.197 29.9692 61.0141 29.6382 60.941 29.2338H61.5628C61.636 29.4544 61.7823 29.6382 61.9652 29.7853C62.1846 29.9324 62.4407 30.006 62.7333 30.006C63.0625 30.006 63.3552 29.8956 63.5746 29.675C63.7941 29.4544 63.9039 29.1602 63.9039 28.7925V28.0203C63.7941 28.2409 63.6112 28.4248 63.3552 28.5719C63.0991 28.7189 62.8431 28.7925 62.5139 28.7925C62.1846 28.7925 61.892 28.7189 61.5994 28.5351C61.3433 28.388 61.1239 28.1306 60.9775 27.8364C60.8312 27.5422 60.7581 27.2113 60.7581 26.8436C60.7581 26.4758 60.8312 26.1449 60.9775 25.8507C61.1239 25.5566 61.3433 25.3359 61.5994 25.1888C61.8554 25.0417 62.1846 24.9682 62.5139 24.9682C62.8065 24.8947 63.0991 24.9682 63.3552 25.0785ZM63.721 26.0714C63.6112 25.8507 63.4649 25.7036 63.282 25.5933C63.0991 25.483 62.8796 25.4095 62.6602 25.4095C62.4407 25.4095 62.2212 25.4462 62.0383 25.5565C61.8554 25.6669 61.7091 25.814 61.5994 26.0346C61.4896 26.2552 61.4165 26.4759 61.4165 26.77C61.4165 27.0642 61.4896 27.3216 61.5994 27.5055C61.7091 27.6893 61.8554 27.8732 62.0383 27.9835C62.2212 28.0938 62.4407 28.1674 62.6602 28.1674C62.8796 28.1674 63.0991 28.0938 63.282 27.9835C63.4649 27.8732 63.6112 27.7261 63.721 27.5055C63.8307 27.2848 63.9039 27.0642 63.9039 26.77C63.8673 26.5126 63.8307 26.292 63.721 26.0714Z" fill="white"/>
<path d="M68.9885 25.2992C69.2811 25.5566 69.3909 25.9611 69.3909 26.4759V28.6822H68.769V26.5862C68.769 26.2185 68.6593 25.9243 68.4764 25.7404C68.2935 25.5566 68.0375 25.4463 67.7082 25.4463C67.379 25.4463 67.123 25.5566 66.9401 25.7404C66.7572 25.9611 66.6474 26.2552 66.6474 26.623V28.6822H66.0256V24.9682H66.6474V25.483C66.7572 25.2992 66.9401 25.1521 67.1596 25.0418C67.379 24.9314 67.5985 24.8947 67.8546 24.8947C68.3301 24.8579 68.6959 25.005 68.9885 25.2992Z" fill="white"/>
<path d="M76.1946 25.0418C76.414 25.1521 76.5969 25.336 76.7433 25.5934C76.8896 25.8508 76.9262 26.1082 76.9262 26.4759V28.6822H76.3043V26.5862C76.3043 26.2185 76.1946 25.9243 76.0117 25.7404C75.8288 25.5566 75.5727 25.4463 75.2801 25.4463C74.9509 25.4463 74.6948 25.5566 74.5119 25.7404C74.329 25.9611 74.2193 26.2552 74.2193 26.623V28.6822H73.5975V26.5862C73.5975 26.2185 73.4877 25.9243 73.3048 25.7404C73.1219 25.5566 72.8659 25.4463 72.5732 25.4463C72.244 25.4463 71.988 25.5566 71.8051 25.7404C71.6222 25.9611 71.5124 26.2552 71.5124 26.623V28.6822H70.9637V24.9682H71.5856V25.5198C71.6953 25.3359 71.8782 25.1889 72.0611 25.0785C72.244 24.9682 72.5001 24.9315 72.7561 24.9315C73.0853 24.9315 73.3414 25.005 73.5975 25.1521C73.8535 25.2992 73.9998 25.483 74.1461 25.7772C74.2559 25.5198 74.4388 25.2992 74.6582 25.1521C74.9143 25.005 75.1704 24.9315 75.463 24.9315C75.719 24.8579 75.9751 24.9315 76.1946 25.0418Z" fill="white"/>
<path d="M81.8277 27.0274H78.8647C78.9013 27.3952 79.0111 27.6893 79.2305 27.8732C79.45 28.0938 79.7426 28.1674 80.0719 28.1674C80.3279 28.1674 80.5474 28.0938 80.7303 27.9835C80.9132 27.8732 81.0229 27.6893 81.0961 27.4687H81.7545C81.6448 27.8364 81.4619 28.1306 81.1692 28.3512C80.8766 28.5719 80.5108 28.6822 80.0719 28.6822C79.7061 28.6822 79.4134 28.6086 79.1208 28.4615C78.8282 28.3145 78.6087 28.0938 78.4624 27.7997C78.3161 27.5055 78.2429 27.1745 78.2429 26.77C78.2429 26.4023 78.3161 26.0346 78.4624 25.7404C78.6087 25.4462 78.8282 25.2256 79.1208 25.0785C79.4134 24.9314 79.7061 24.8579 80.0719 24.8579C80.4376 24.8579 80.7303 24.9314 81.0229 25.0785C81.279 25.2256 81.4984 25.4462 81.6448 25.7036C81.7911 25.9611 81.8642 26.292 81.8642 26.6229C81.8642 26.77 81.8642 26.9171 81.8277 27.0274ZM81.0595 25.9243C80.9498 25.7404 80.8034 25.6301 80.6205 25.5198C80.4376 25.4095 80.2547 25.3727 80.0353 25.3727C79.7061 25.3727 79.45 25.483 79.2305 25.6669C79.0111 25.8507 78.9013 26.1449 78.8647 26.5126H81.2058C81.2058 26.292 81.1692 26.1081 81.0595 25.9243Z" fill="white"/>
<path d="M86.1075 25.2992C86.4001 25.5566 86.5098 25.9611 86.5098 26.4759V28.6822H85.888V26.5862C85.888 26.2185 85.7783 25.9243 85.5954 25.7404C85.4125 25.5566 85.1564 25.4463 84.8272 25.4463C84.498 25.4463 84.2419 25.5566 84.059 25.7404C83.8761 25.9611 83.7664 26.2552 83.7664 26.623V28.6822H83.1445V24.9682H83.7664V25.483C83.8761 25.2992 84.059 25.1521 84.2785 25.0418C84.498 24.9314 84.7175 24.8947 84.9735 24.8947C85.449 24.8579 85.8148 25.005 86.1075 25.2992Z" fill="white"/>
<path d="M88.8144 25.4463V27.6526C88.8144 27.8365 88.8509 27.9468 88.9241 28.0203C88.9973 28.0939 89.1436 28.1306 89.3265 28.1306H89.7654V28.6454H89.2533C88.9241 28.6454 88.668 28.5719 88.4851 28.4248C88.3022 28.2777 88.2291 28.0203 88.2291 27.6526V25.4463H87.7536V24.9315H88.2291V23.9754H88.8509V24.9315H89.802V25.4463H88.8144Z" fill="white"/>
<path d="M96.0204 25.0414C96.2399 25.1517 96.4228 25.3356 96.5691 25.593C96.7154 25.8504 96.752 26.1078 96.752 26.4755V28.6818H96.1302V26.5858C96.1302 26.2181 96.0204 25.9239 95.8375 25.7401C95.6546 25.5562 95.3986 25.4459 95.0694 25.4459C94.7402 25.4459 94.4841 25.5562 94.3012 25.7401C94.1183 25.9607 94.0086 26.2549 94.0086 26.6226V28.6818H93.3867V23.6441H94.0086V25.4827C94.1183 25.2988 94.3012 25.1517 94.5207 25.0414C94.7402 24.9311 94.9596 24.8943 95.2523 24.8943C95.5449 24.8575 95.801 24.9311 96.0204 25.0414Z" fill="white"/>
<path d="M101.654 27.0274H98.6908C98.7274 27.3952 98.8371 27.6893 99.0566 27.8732C99.2761 28.0938 99.5687 28.1674 99.8979 28.1674C100.154 28.1674 100.373 28.0938 100.556 27.9835C100.739 27.8732 100.849 27.6893 100.922 27.4687H101.581C101.471 27.8364 101.288 28.1306 100.995 28.3512C100.703 28.5719 100.337 28.6822 99.8979 28.6822C99.5321 28.6822 99.2395 28.6086 98.9469 28.4615C98.6542 28.3145 98.4348 28.0938 98.2884 27.7997C98.1421 27.5055 98.069 27.1745 98.069 26.77C98.069 26.4023 98.1421 26.0346 98.2884 25.7404C98.4348 25.4462 98.6542 25.2256 98.9469 25.0785C99.2395 24.9314 99.5321 24.8579 99.8979 24.8579C100.264 24.8579 100.556 24.9314 100.849 25.0785C101.105 25.2256 101.325 25.4462 101.471 25.7036C101.617 25.9611 101.69 26.292 101.69 26.6229C101.69 26.77 101.69 26.9171 101.654 27.0274ZM100.886 25.9243C100.776 25.7404 100.63 25.6301 100.447 25.5198C100.264 25.4095 100.081 25.3727 99.8613 25.3727C99.5321 25.3727 99.2761 25.483 99.0566 25.6669C98.8371 25.8507 98.7274 26.1449 98.6908 26.5126H101.032C101.068 26.292 100.995 26.1081 100.886 25.9243Z" fill="white"/>
<path d="M103.665 23.6441V28.6818H103.044V23.6441H103.665Z" fill="white"/>
<path d="M106.409 25.1153C106.665 24.9682 106.921 24.8947 107.25 24.8947C107.579 24.8947 107.872 24.9682 108.165 25.1153C108.421 25.2624 108.64 25.483 108.787 25.7772C108.933 26.0714 109.006 26.4023 109.006 26.7701C109.006 27.1378 108.933 27.4687 108.787 27.7629C108.64 28.0571 108.421 28.2777 108.165 28.4616C107.909 28.6087 107.579 28.719 107.25 28.719C106.921 28.719 106.665 28.6454 106.409 28.4983C106.153 28.3513 105.97 28.1674 105.86 27.9468V30.4105H105.238V24.9315H105.86V25.6301C105.97 25.4095 106.153 25.2256 106.409 25.1153ZM108.201 26.0714C108.092 25.8508 107.945 25.7037 107.762 25.5934C107.579 25.483 107.36 25.4463 107.141 25.4463C106.921 25.4463 106.702 25.5198 106.519 25.6301C106.336 25.7404 106.189 25.8875 106.043 26.1082C105.897 26.3288 105.86 26.5494 105.86 26.8436C105.86 27.1378 105.933 27.3584 106.043 27.579C106.153 27.7997 106.299 27.9468 106.519 28.0571C106.738 28.1674 106.921 28.2409 107.141 28.2409C107.36 28.2409 107.579 28.1674 107.762 28.0571C107.945 27.9468 108.092 27.7997 108.201 27.579C108.311 27.3584 108.384 27.1378 108.384 26.8436C108.384 26.5127 108.311 26.2553 108.201 26.0714Z" fill="white"/>
<path d="M113.871 25.1153C114.127 24.9682 114.383 24.8947 114.712 24.8947C115.042 24.8947 115.334 24.9682 115.627 25.1153C115.883 25.2624 116.102 25.483 116.249 25.7772C116.395 26.0714 116.468 26.4023 116.468 26.7701C116.468 27.1378 116.395 27.4687 116.249 27.7629C116.102 28.0571 115.883 28.2777 115.627 28.4616C115.371 28.6087 115.042 28.719 114.712 28.719C114.383 28.719 114.127 28.6454 113.871 28.4983C113.615 28.3513 113.432 28.1674 113.322 27.9468V30.4105H112.701V24.9315H113.322V25.6301C113.432 25.4095 113.615 25.2256 113.871 25.1153ZM115.664 26.0714C115.554 25.8508 115.407 25.7037 115.225 25.5934C115.042 25.483 114.822 25.4463 114.603 25.4463C114.383 25.4463 114.164 25.5198 113.981 25.6301C113.798 25.7404 113.652 25.8875 113.505 26.1082C113.359 26.3288 113.322 26.5494 113.322 26.8436C113.322 27.1378 113.396 27.3584 113.505 27.579C113.615 27.7997 113.761 27.9468 113.981 28.0571C114.2 28.1674 114.383 28.2409 114.603 28.2409C114.822 28.2409 115.042 28.1674 115.225 28.0571C115.407 27.9468 115.554 27.7997 115.664 27.579C115.773 27.3584 115.846 27.1378 115.846 26.8436C115.846 26.5127 115.773 26.2553 115.664 26.0714Z" fill="white"/>
<path d="M118.444 23.6441V28.6818H117.822V23.6441H118.444Z" fill="white"/>
<path d="M120.016 25.7772C120.163 25.483 120.382 25.2624 120.638 25.1153C120.894 24.9682 121.223 24.8947 121.553 24.8947C121.882 24.8947 122.174 24.9682 122.394 25.1153C122.65 25.2624 122.796 25.4463 122.943 25.6301V24.9682H123.565V28.6822H122.943V27.9835C122.833 28.2042 122.65 28.388 122.394 28.5351C122.138 28.6822 121.882 28.7558 121.553 28.7558C121.223 28.7558 120.931 28.6822 120.675 28.4983C120.419 28.3513 120.199 28.0939 120.053 27.7997C119.907 27.5055 119.833 27.1746 119.833 26.8068C119.797 26.4023 119.87 26.0714 120.016 25.7772ZM122.76 26.0714C122.65 25.8508 122.504 25.7037 122.321 25.5934C122.138 25.483 121.918 25.4095 121.699 25.4095C121.48 25.4095 121.26 25.4463 121.077 25.5566C120.894 25.6669 120.748 25.814 120.638 26.0346C120.528 26.2553 120.455 26.4759 120.455 26.7701C120.455 27.0642 120.528 27.3216 120.638 27.5055C120.748 27.6894 120.894 27.8732 121.077 27.9835C121.26 28.0939 121.48 28.1674 121.699 28.1674C121.918 28.1674 122.138 28.0939 122.321 27.9835C122.504 27.8732 122.65 27.7261 122.76 27.5055C122.869 27.2849 122.943 27.0642 122.943 26.7701C122.943 26.5127 122.869 26.292 122.76 26.0714Z" fill="white"/>
<path d="M125.906 25.4463V27.6526C125.906 27.8365 125.942 27.9468 126.015 28.0203C126.089 28.0939 126.235 28.1306 126.418 28.1306H126.857V28.6454H126.308C125.979 28.6454 125.723 28.5719 125.54 28.4248C125.357 28.2777 125.284 28.0203 125.284 27.6526V25.4463H124.808V24.9315H125.284V23.9754H125.906V24.9315H126.857V25.4463H125.906Z" fill="white"/>
<path d="M129.673 25.4462H128.905V28.6822H128.283V25.4462H127.808V24.9314H128.283V24.674C128.283 24.2695 128.393 23.9386 128.612 23.7547C128.832 23.5709 129.161 23.4606 129.637 23.4606V23.9754C129.381 23.9754 129.161 24.0121 129.051 24.1225C128.942 24.2328 128.868 24.4166 128.868 24.6373V24.8947H129.637V25.4462H129.673Z" fill="white"/>
<path d="M131.612 28.4983C131.319 28.3512 131.1 28.1306 130.954 27.8364C130.807 27.5422 130.698 27.2113 130.698 26.8068C130.698 26.4391 130.771 26.0714 130.954 25.814C131.136 25.5198 131.356 25.2991 131.612 25.1521C131.905 25.005 132.197 24.9314 132.563 24.9314C132.929 24.9314 133.221 25.005 133.514 25.1521C133.807 25.2991 134.026 25.5198 134.173 25.814C134.319 26.1081 134.429 26.4391 134.429 26.8436C134.429 27.2113 134.355 27.579 134.173 27.8732C133.99 28.1674 133.77 28.388 133.478 28.5351C133.185 28.6822 132.856 28.7557 132.526 28.7557C132.197 28.7189 131.868 28.6454 131.612 28.4983ZM133.148 28.0203C133.331 27.91 133.514 27.7629 133.624 27.5422C133.734 27.3216 133.807 27.0642 133.807 26.77C133.807 26.4759 133.734 26.2184 133.624 25.9978C133.514 25.7772 133.368 25.6301 133.148 25.5198C132.965 25.4095 132.746 25.3727 132.526 25.3727C132.307 25.3727 132.088 25.4095 131.905 25.5198C131.722 25.6301 131.575 25.7772 131.466 25.9978C131.356 26.2184 131.283 26.4759 131.283 26.77C131.283 27.0642 131.356 27.3216 131.466 27.5422C131.575 27.7629 131.722 27.91 131.905 28.0203C132.088 28.1306 132.307 28.1674 132.526 28.1674C132.746 28.1674 132.965 28.1306 133.148 28.0203Z" fill="white"/>
<path d="M136.879 25.0418C137.062 24.9314 137.318 24.8579 137.611 24.8579V25.483H137.465C136.77 25.483 136.44 25.8507 136.44 26.6229V28.6454H135.819V24.9314H136.44V25.5198C136.514 25.3359 136.66 25.1888 136.879 25.0418Z" fill="white"/>
<path d="M144.086 25.0418C144.305 25.1521 144.488 25.336 144.634 25.5934C144.781 25.8508 144.817 26.1082 144.817 26.4759V28.6822H144.195V26.5862C144.195 26.2185 144.086 25.9243 143.903 25.7404C143.72 25.5566 143.464 25.4463 143.171 25.4463C142.842 25.4463 142.586 25.5566 142.403 25.7404C142.22 25.9611 142.11 26.2552 142.11 26.623V28.6822H141.488V26.5862C141.488 26.2185 141.379 25.9243 141.196 25.7404C141.013 25.5566 140.757 25.4463 140.464 25.4463C140.135 25.4463 139.879 25.5566 139.696 25.7404C139.513 25.9611 139.403 26.2552 139.403 26.623V28.6822H138.782V24.9682H139.403V25.5198C139.513 25.3359 139.696 25.1889 139.879 25.0785C140.062 24.9682 140.318 24.9315 140.574 24.9315C140.903 24.9315 141.159 25.005 141.415 25.1521C141.671 25.2992 141.818 25.483 141.964 25.7772C142.074 25.5198 142.257 25.2992 142.476 25.1521C142.732 25.005 142.988 24.9315 143.281 24.9315C143.61 24.8579 143.866 24.9315 144.086 25.0418Z" fill="white"/>
<path d="M14.778 13.6056H10.3153L8.66927 5.03776L7.02321 13.6056H2.56055L0 0H2.88976L4.82846 9.70781L6.76716 0H10.608L12.5467 9.70781L14.4854 0H17.3751L14.778 13.6056Z" fill="white"/>
<path d="M23.1913 8.75174H21.2526V13.6056H18.3628V0H24.1423C26.7029 0 28.0197 1.28702 28.0197 3.89783V4.8539C28.0197 6.4351 27.4344 7.57503 26.2273 8.20016L28.0197 13.5689H25.13L23.1913 8.75174ZM21.2526 2.90499V5.80998H24.1423C24.8007 5.80998 25.0934 5.47903 25.0934 4.8539V3.89783C25.0934 3.23594 24.7642 2.94176 24.1423 2.94176H21.2526V2.90499Z" fill="white"/>
<path d="M32.848 0V13.6056H29.9583V0H32.848Z" fill="white"/>
<path d="M44.4438 0V2.90499H41.0785V13.6056H38.1887V2.90499H34.8235V0H44.4438Z" fill="white"/>
<path d="M49.2722 0V13.6056H46.3825V0H49.2722Z" fill="white"/>
<path d="M54.1007 0L58.9291 8.2737V0H61.8189V13.6056H58.9291L54.1007 5.33194V13.6056H51.2109V0H54.1007Z" fill="white"/>
<path d="M66.6473 9.70781C66.6473 10.3697 66.9765 10.6639 67.5983 10.6639H69.537C70.1955 10.6639 70.4881 10.3329 70.4881 9.70781V8.23693H68.5494V5.33194H73.3779V9.70781C73.3779 12.2818 72.0976 13.6056 69.5005 13.6056H67.5618C65.0012 13.6056 63.6844 12.3186 63.6844 9.70781V3.89783C63.6844 1.32379 64.9646 0 67.5618 0H73.3779V2.90499H67.5618C66.9033 2.90499 66.6107 3.23594 66.6107 3.86106V9.70781H66.6473Z" fill="white"/>
<path d="M85.0099 0C87.5705 0 88.8873 1.28702 88.8873 3.89783C88.8873 5.66289 88.3386 6.61896 87.2413 6.80282C88.3386 6.98668 88.8873 7.97952 88.8873 9.70781C88.8873 12.2818 87.6071 13.6056 85.0099 13.6056H79.1938V0H85.0099ZM82.1202 2.90499V5.33194H85.0099C85.6684 5.33194 85.961 5.00099 85.961 4.37587V3.89783C85.961 3.23594 85.6318 2.94176 85.0099 2.94176H82.1202V2.90499ZM82.1202 8.2737V10.7007H85.0099C85.6684 10.7007 85.961 10.3697 85.961 9.74458V9.26654C85.961 8.60465 85.6318 8.31047 85.0099 8.31047H82.1202V8.2737Z" fill="white"/>
<path d="M93.716 0V9.70781C93.716 10.3697 94.0452 10.6639 94.6671 10.6639H96.6058C97.2642 10.6639 97.5568 10.3329 97.5568 9.70781V0H100.447V9.70781C100.447 12.2818 99.1663 13.6056 96.5692 13.6056H94.6305C92.0699 13.6056 90.7531 12.3186 90.7531 9.70781V0H93.716Z" fill="white"/>
<path d="M105.312 9.70781C105.312 10.3697 105.641 10.6639 106.263 10.6639H111.091V13.5689H106.263C103.702 13.5689 102.385 12.2819 102.385 9.67104V3.89783C102.385 1.32379 103.666 0 106.263 0H111.091V2.90499H106.263C105.604 2.90499 105.312 3.23594 105.312 3.86106V9.70781Z" fill="white"/>
<path d="M113.03 13.6056V0H115.92V6.32478L119.614 0H122.723L118.663 6.80282L122.723 13.6056H119.614L115.956 7.28086V13.6056H113.03Z" fill="white"/>
<path d="M132.856 5.33194V8.23693H127.076V10.6639H132.856V13.5689H124.15V0H132.856V2.90499H127.076V5.33194H132.856Z" fill="white"/>
<path d="M144.451 0V2.90499H141.086V13.6056H138.196V2.90499H134.831V0H144.451Z" fill="white"/>
<path d="M0 20.813H145" stroke="white" stroke-width="0.25" stroke-miterlimit="10"/>
</svg>
