<svg width="29" height="43" viewBox="0 0 29 43" fill="none" xmlns="http://www.w3.org/2000/svg">
<path fill-rule="evenodd" clip-rule="evenodd" d="M29 0H0L0.129246 43L14.4476 35.2384L28.511 42.895L29 0ZM16.5854 9.03532L14.5 2.63851C16.526 2.63851 18.3215 3.2124 19.9004 4.36019C21.4758 5.50448 22.6041 7.06519 23.2992 9.03532H16.5854ZM17.8639 13.0071L23.3027 9.04932C23.5996 10.1166 23.7498 11.0824 23.7498 11.9433C23.7498 14.9912 22.4783 17.4792 19.9353 19.4074L17.8639 13.0071ZM14.5 15.4461L19.9353 19.4039C18.2202 20.5797 16.4073 21.1711 14.5 21.1711C12.5997 21.1711 10.7868 20.5832 9.06468 19.4039L14.5 15.4461ZM11.1396 13.0071L9.06468 19.4039C6.52168 17.3918 5.25018 14.8967 5.25018 11.9153C5.25018 11.0474 5.40388 10.0886 5.71127 9.04582L11.1396 13.0071ZM12.4286 9.03532H5.71127C6.38894 7.07218 7.51722 5.51847 9.09962 4.36369C10.682 3.2159 12.4845 2.63851 14.5 2.63851L12.4286 9.03532Z" fill="white"/>
</svg>
