<svg width="110" height="110" viewBox="0 0 110 110" fill="none" xmlns="http://www.w3.org/2000/svg">
<circle cx="55" cy="55" r="55" fill="#019DD6"/>
<path d="M33.125 67.25C32.4288 67.25 31.7611 66.9734 31.2688 66.4812C30.7766 65.9889 30.5 65.3212 30.5 64.625V37.5C30.5 36.5717 30.8687 35.6815 31.5251 35.0251C32.1815 34.3687 33.0717 34 34 34H53.25C54.1783 34 55.0685 34.3687 55.7249 35.0251C56.3813 35.6815 56.75 36.5717 56.75 37.5V39.25H63.75C64.6783 39.25 65.5685 39.6187 66.2249 40.2751C66.8812 40.9315 67.25 41.8217 67.25 42.75V46.25H76C76.9283 46.25 77.8185 46.6187 78.4749 47.2751C79.1312 47.9315 79.5 48.8217 79.5 49.75V76H55.875C55.6429 76 55.4204 76.0922 55.2563 76.2563C55.0922 76.4204 55 76.6429 55 76.875C55 77.1071 55.0922 77.3296 55.2563 77.4937C55.4204 77.6578 55.6429 77.75 55.875 77.75H79.3512C79.1702 78.262 78.8349 78.7053 78.3914 79.0187C77.9479 79.3321 77.4181 79.5003 76.875 79.5H55.875C55.1788 79.5 54.5111 79.2234 54.0188 78.7312C53.5266 78.2389 53.25 77.5712 53.25 76.875V72.5H43.625C42.9288 72.5 42.2611 72.2234 41.7688 71.7312C41.2766 71.2389 41 70.5712 41 69.875V67.25H33.125ZM56.6013 65.5C56.4202 66.012 56.0849 66.4553 55.6414 66.7687C55.1979 67.0821 54.6681 67.2503 54.125 67.25H65.5V42.75C65.5 42.2859 65.3156 41.8408 64.9874 41.5126C64.6592 41.1844 64.2141 41 63.75 41H56.75V63.75H33.125C32.8929 63.75 32.6704 63.8422 32.5063 64.0063C32.3422 64.1704 32.25 64.3929 32.25 64.625C32.25 64.8571 32.3422 65.0796 32.5063 65.2437C32.6704 65.4078 32.8929 65.5 33.125 65.5H56.6013ZM42.75 67.25H43.625C43.3188 67.25 43.023 67.3025 42.75 67.3988V67.25ZM55 62V37.5C55 37.0359 54.8156 36.5908 54.4874 36.2626C54.1592 35.9344 53.7141 35.75 53.25 35.75H35.75V62H55ZM55 72.5V74.3988C55.273 74.3025 55.5688 74.25 55.875 74.25H77.75V49.75C77.75 49.2859 77.5656 48.8408 77.2374 48.5126C76.9092 48.1844 76.4641 48 76 48H67.25V69H43.625C43.3929 69 43.1704 69.0922 43.0063 69.2563C42.8422 69.4204 42.75 69.6429 42.75 69.875C42.75 70.1071 42.8422 70.3296 43.0063 70.4937C43.1704 70.6578 43.3929 70.75 43.625 70.75H67.1012C66.9202 71.262 66.5849 71.7053 66.1414 72.0187C65.6979 72.3321 65.1681 72.5003 64.625 72.5H55Z" fill="white"/>
</svg>
