<svg width="36" height="36" viewBox="0 0 36 36" fill="none" xmlns="http://www.w3.org/2000/svg">
<path d="M16.9453 5.34394H19.0547C19.2422 5.34394 19.3359 5.43769 19.3359 5.62519V30.3752C19.3359 30.5627 19.2422 30.6564 19.0547 30.6564H16.9453C16.7578 30.6564 16.6641 30.5627 16.6641 30.3752V5.62519C16.6641 5.43769 16.7578 5.34394 16.9453 5.34394Z" fill="#134056"/>
<path d="M6.18755 16.664H29.8125C30 16.664 30.0938 16.7577 30.0938 16.9452V19.0546C30.0938 19.2421 30 19.3358 29.8125 19.3358H6.18755C6.00005 19.3358 5.9063 19.2421 5.9063 19.0546V16.9452C5.9063 16.7577 6.00005 16.664 6.18755 16.664Z" fill="#134056"/>
</svg>
