<svg width="71" height="70" viewBox="0 0 71 70" fill="none" xmlns="http://www.w3.org/2000/svg">
<path d="M23.6667 46.6667V35C23.6667 31.9058 24.9134 28.9383 27.1326 26.7504C29.3517 24.5625 32.3616 23.3333 35.5 23.3333C38.6384 23.3333 41.6482 24.5625 43.8674 26.7504C46.0866 28.9383 47.3333 31.9058 47.3333 35V46.6667M8.875 35H11.8333M35.5 8.75V11.6667M59.1667 35H62.125M16.5667 16.3333L18.6375 18.375M54.4333 16.3333L52.3625 18.375" stroke="white" stroke-width="3" stroke-linecap="round" stroke-linejoin="round"/>
<path d="M50.2917 46.6667H20.7083C19.0745 46.6667 17.75 47.9726 17.75 49.5834V55.4167C17.75 57.0276 19.0745 58.3334 20.7083 58.3334H50.2917C51.9255 58.3334 53.25 57.0276 53.25 55.4167V49.5834C53.25 47.9726 51.9255 46.6667 50.2917 46.6667Z" stroke="white" stroke-width="3" stroke-linecap="round" stroke-linejoin="round"/>
</svg>
