<svg width="50" height="57" viewBox="0 0 50 57" fill="none" xmlns="http://www.w3.org/2000/svg">
<g clip-path="url(#clip0_521_866)">
<path fill-rule="evenodd" clip-rule="evenodd" d="M36.2267 31.1451C39.7961 31.1451 43.03 32.5934 45.3739 34.9323C47.7257 37.2701 49.1765 40.504 49.1765 44.072C49.1765 47.641 47.7257 50.875 45.3829 53.2128L45.2357 53.3486C42.9028 55.6073 39.7259 57 36.2267 57C32.6516 57 29.4133 55.5517 27.0716 53.2128C24.7287 50.875 23.278 47.641 23.278 44.072C23.278 40.5029 24.7287 37.2701 27.0716 34.9323C29.4133 32.5934 32.6516 31.1451 36.2267 31.1451ZM27.1095 4.23921V10.2707C27.2199 11.7101 27.7228 12.8412 28.606 13.5937C29.5204 14.3741 30.8875 14.8116 32.6973 14.8439L36.9258 14.8395L27.1095 4.23921ZM37.2804 17.6526L32.675 17.6482C30.1671 17.6092 28.1912 16.9357 26.7761 15.7289C25.3008 14.4699 24.47 12.6842 24.3017 10.4711L24.2894 10.2774V2.81538H7.01071C5.85769 2.81538 4.80837 3.28628 4.05009 4.04328C3.29181 4.80028 2.82012 5.84784 2.82012 6.99893V44.4583C2.82012 45.6049 3.29404 46.6525 4.05343 47.4106C4.81171 48.1676 5.86215 48.6407 7.01071 48.6407H20.3263C20.6095 49.6192 20.9808 50.561 21.4325 51.4561H7.01071C5.0838 51.4561 3.32861 50.6679 2.0585 49.401C0.7895 48.1331 0 46.3819 0 44.4583V6.99893C0 5.07748 0.7895 3.32747 2.05738 2.0606C3.33307 0.788172 5.08603 0 7.01071 0H26.4003C26.8586 0 27.2656 0.218195 27.5232 0.556619L39.7214 13.7307C39.9712 14.0012 40.0939 14.3418 40.0939 14.6825L40.0972 28.0102C39.1851 27.7909 38.2439 27.6484 37.2804 27.5883V17.6526ZM11.6596 23.7186C10.8813 23.7186 10.2501 23.0886 10.2501 22.3115C10.2501 21.5334 10.8813 20.9033 11.6596 20.9033H28.441C29.2193 20.9033 29.8516 21.5334 29.8516 22.3115C29.8516 23.0886 29.2193 23.7186 28.441 23.7186H11.6596ZM11.6596 31.7674C10.8813 31.7674 10.2501 31.1373 10.2501 30.3591C10.2501 29.5821 10.8813 28.952 11.6596 28.952H27.5522C27.9659 28.952 28.3384 29.1301 28.5971 29.414C27.368 30.0536 26.224 30.8442 25.1915 31.7674H11.6596ZM11.6596 39.8161C10.8813 39.8161 10.2501 39.186 10.2501 38.4078C10.2501 37.6308 10.8813 37.0007 11.6596 37.0007H21.2719C20.8459 37.8968 20.4969 38.8386 20.236 39.8161H11.6596ZM35.8999 48.3713L31.1261 49.6415L31.8142 44.5284L35.8999 48.3713ZM32.8668 43.3673L37.5548 38.0293C37.6328 37.938 37.7488 37.8835 37.8692 37.8801C37.9451 37.8779 38.0187 37.8935 38.0844 37.9291L41.7219 41.2299C41.7933 41.2967 41.8379 41.3902 41.839 41.4904C41.8424 41.6006 41.7955 41.7097 41.7108 41.782L36.9381 47.2102L32.8613 43.3673H32.8668Z" fill="white"/>
</g>
<defs>
<clipPath id="clip0_521_866">
<rect width="49.1765" height="57" fill="white"/>
</clipPath>
</defs>
</svg>
