<svg width="41" height="19" viewBox="0 0 41 19" fill="none" xmlns="http://www.w3.org/2000/svg">
<path d="M30.7887 18.6169H31.4987C32.7691 18.6169 34.0769 18.6169 35.3473 18.5418C36.6177 18.4667 37.8507 18.091 39.009 17.4149C43.717 13.1329 38.598 8.96349 38.598 8.96349C38.598 8.96349 42.1103 3.66726 37.8881 0.85012C37.4023 0.587186 36.9166 0.399377 36.3935 0.286691C35.0484 -0.0513663 33.7032 -0.0138061 32.2833 0.0237558C31.6481 0.0237558 30.9756 0.0613178 30.3404 0.0237558L29.182 3.51702C29.4062 3.51702 29.5931 3.51702 29.8173 3.51702C30.7887 3.51702 31.7229 3.51702 32.657 3.51702C33.2548 3.51702 33.7779 3.59214 34.2263 3.74239C35.0857 4.00532 35.6088 4.68144 35.6088 5.58292C35.6088 6.55953 35.1604 7.19808 34.2637 7.46102C33.7779 7.61126 33.1801 7.68639 32.6196 7.68639C31.3119 7.72395 28.6589 7.68639 27.7995 7.64883C27.6501 8.06201 27.3885 8.85081 27.2764 9.18886L26.7907 10.6538C30.6019 10.6538 32.4328 10.6538 33.2922 10.6538C33.89 10.6538 34.4505 10.7289 34.9736 10.8792C35.8704 11.1421 36.3935 11.8182 36.4309 12.7573C36.4682 13.7339 35.9451 14.4475 35.0484 14.7105C34.5252 14.8607 33.9648 14.9734 33.4043 14.9734L25.4082 15.0485L24.2125 18.5042C25.5576 18.6545 29.0326 18.6545 30.7887 18.6169Z" fill="white"/>
<path d="M13.8625 8.02479L14.3483 6.86037L17.599 16.1757C18.2342 14.0347 18.8694 11.8561 19.5046 9.71508C19.5046 9.67751 19.5046 9.56483 19.4673 9.45214C18.5705 6.71012 16.7396 1.30121 16.3286 0.0616645H12.3679L6.31479 18.467L10.2381 18.4294C10.6865 17.1148 12.7042 11.2927 13.7504 8.28772C13.7504 8.2126 13.7878 8.13748 13.8625 8.02479Z" fill="white"/>
<path d="M20.6629 11.1801C19.9529 13.5841 19.2056 16.0256 18.4957 18.4295C18.4583 18.5422 18.4583 18.5798 18.4583 18.6549C18.4957 18.6549 18.6078 18.6549 18.7199 18.6549C19.0562 18.6549 19.3924 18.6549 19.7287 18.6549C20.065 18.6549 20.4013 18.6549 20.7376 18.6549C21.2607 18.6549 21.8212 18.6549 22.3443 18.6549C22.5685 18.6549 22.5685 18.6549 22.6058 18.4671C23.8015 14.8236 24.9972 11.1801 26.2302 7.53659L27.2765 4.38139C27.6127 3.32966 27.9864 2.24036 28.3227 1.15106L28.6963 0.024203C27.4633 0.024203 24.9225 0.024203 24.0631 0.024203C23.6894 1.30131 22.0827 6.55998 21.2981 9.15175L20.6629 11.1801Z" fill="white"/>
<path d="M4.70799 0.0992258C3.1013 0.0992258 0.97149 0.0616645 0 0.0616645L5.34319 16.2884L7.54773 9.60239L4.70799 0.0992258Z" fill="white"/>
</svg>
