<svg width="40" height="40" viewBox="0 0 40 40" fill="none" xmlns="http://www.w3.org/2000/svg">
<g clip-path="url(#clip0_521_1008)">
<path d="M7.31128 13.8092C6.84128 14.3692 6.09253 14.813 5.34503 14.748C5.24628 13.993 5.61878 13.1842 6.04878 12.683C6.51753 12.1117 7.33753 11.7017 8.00253 11.668C8.08128 12.4567 7.77378 13.2317 7.31253 13.8092H7.31128ZM7.99503 14.8967C6.90878 14.8305 5.97628 15.5205 5.46128 15.5205C4.93503 15.5205 4.14628 14.9292 3.28753 14.9492C2.17378 14.963 1.13253 15.5992 0.56628 16.623C-0.61247 18.6592 0.26003 21.6742 1.39253 23.3342C1.94628 24.1542 2.60878 25.053 3.48253 25.028C4.30878 24.9942 4.64128 24.4817 5.63753 24.4817C6.64628 24.4817 6.93253 25.028 7.81253 25.008C8.71628 24.9942 9.28878 24.188 9.84253 23.368C10.4738 22.4367 10.7338 21.5242 10.7475 21.4792C10.7338 21.4592 8.99628 20.7892 8.98378 18.7705C8.97003 17.0767 10.35 16.2705 10.4088 16.2242C9.63378 15.053 8.41003 14.9292 7.99378 14.898L7.99503 14.8967ZM14.265 12.6042V24.923H16.1588V20.7117H18.7775C21.1663 20.7117 22.8463 19.0517 22.8463 16.6555C22.8463 14.2542 21.2 12.6055 18.8425 12.6055L14.265 12.6042ZM16.1588 14.2192H18.34C19.98 14.2192 20.9188 15.1042 20.9188 16.6605C20.9188 18.2167 19.98 19.1092 18.3275 19.1092H16.1588V14.2192ZM26.295 25.0142C27.4863 25.0142 28.5863 24.4092 29.0888 23.4442H29.1288V24.923H30.8788V18.7892C30.8788 17.0192 29.4738 15.868 27.305 15.868C25.3 15.868 23.815 17.033 23.7638 18.628H25.4625C25.6063 17.8667 26.2963 17.3717 27.2538 17.3717C28.4125 17.3717 29.0575 17.918 29.0575 18.9217V19.598L26.7013 19.7417C24.5 19.878 23.315 20.783 23.315 22.3655C23.315 23.9605 24.54 25.0155 26.2963 25.0155L26.295 25.0142ZM26.81 23.5555C25.8 23.5555 25.1563 23.0667 25.1563 22.3192C25.1563 21.5442 25.775 21.088 26.9525 21.0155L29.0563 20.8855V21.5817C29.0563 22.7355 28.0863 23.5555 26.8025 23.5555H26.81ZM33.2163 28.2755C35.0575 28.2755 35.925 27.5592 36.68 25.4042L40 15.9905H38.08L35.8538 23.2617H35.8138L33.5875 15.9905H31.6088L34.8125 24.9555L34.6425 25.5017C34.3488 26.4205 33.8813 26.7767 33.0475 26.7767C32.8975 26.7767 32.6113 26.758 32.4938 26.7455V28.2242C32.6038 28.2555 33.0738 28.2692 33.21 28.2692L33.2163 28.2755Z" fill="white"/>
</g>
<defs>
<clipPath id="clip0_521_1008">
<rect width="40" height="40" fill="white"/>
</clipPath>
</defs>
</svg>
