<svg width="32" height="32" viewBox="0 0 32 32" fill="none" xmlns="http://www.w3.org/2000/svg">
<g clip-path="url(#clip0_521_1010)">
<path d="M32 13.3333L27.823 22.6663H26.531L28.083 19.4003L25.333 13.3323H26.692L28.682 17.9833H28.708L30.635 13.3323L32 13.3333ZM14.646 16.2193V20.0003H13.333V10.6673H16.807C17.6316 10.6446 18.4347 10.9327 19.057 11.4743C19.672 11.9793 20.01 12.6933 20 13.4483C20.0042 13.8282 19.9214 14.2041 19.758 14.5471C19.5945 14.8901 19.3547 15.1912 19.057 15.4273C18.453 15.9583 17.703 16.2193 16.807 16.2193H14.646ZM14.641 11.8183V15.0733H16.839C17.3175 15.0904 17.7835 14.9183 18.136 14.5943C18.475 14.2923 18.662 13.8803 18.662 13.4533C18.662 13.0213 18.474 12.6093 18.136 12.3123C17.9634 12.1479 17.7598 12.0196 17.5371 11.9346C17.3145 11.8496 17.0772 11.8097 16.839 11.8173L14.641 11.8183ZM22.63 13.3333C23.463 13.3333 24.125 13.5673 24.609 14.0313C25.093 14.4953 25.333 15.1303 25.333 15.9373V19.7963H24.25V18.9263H24.203C23.734 19.6403 23.114 19.9993 22.338 19.9993C21.671 19.9993 21.119 19.7963 20.671 19.3843C20.4548 19.1929 20.2828 18.9569 20.1668 18.6926C20.0507 18.4283 19.9935 18.1419 19.999 17.8533C19.999 17.2073 20.233 16.6923 20.707 16.3063C21.176 15.9263 21.806 15.7333 22.592 15.7333C23.264 15.7333 23.816 15.8633 24.248 16.1183V15.8473C24.2494 15.6505 24.2087 15.4558 24.1287 15.2761C24.0486 15.0964 23.9311 14.9358 23.784 14.8053C23.4876 14.5278 23.0959 14.3749 22.69 14.3783C22.06 14.3783 21.56 14.6543 21.19 15.2063L20.195 14.5603C20.742 13.7423 21.554 13.3313 22.627 13.3313L22.63 13.3333ZM21.167 17.8803C21.1647 18.0284 21.1975 18.1751 21.2627 18.3082C21.3279 18.4413 21.4236 18.5571 21.542 18.6463C21.792 18.8493 22.105 18.9593 22.422 18.9533C22.896 18.9533 23.354 18.7553 23.693 18.4063C24.052 18.0733 24.256 17.6043 24.256 17.1143C23.902 16.8223 23.412 16.6763 22.782 16.6763C22.318 16.6763 21.938 16.7913 21.631 17.0203C21.324 17.2543 21.167 17.5363 21.167 17.8793V17.8803ZM5.44298 10.6673C6.78938 10.651 8.09137 11.1484 9.08398 12.0583L7.53198 13.5793C6.96503 13.0533 6.21621 12.7676 5.44298 12.7823C4.76821 12.7856 4.11123 12.999 3.56336 13.3929C3.0155 13.7868 2.60397 14.3417 2.38598 14.9803C2.15693 15.6416 2.15693 16.3609 2.38598 17.0223C2.60397 17.6608 3.0155 18.2157 3.56336 18.6096C4.11123 19.0035 4.76821 19.2169 5.44298 19.2203C6.17698 19.2203 6.80798 19.0383 7.29698 18.7153C7.57831 18.532 7.81941 18.2935 8.0056 18.0141C8.19178 17.7348 8.31916 17.4204 8.37998 17.0903H5.44198V15.0383H10.572C10.635 15.3973 10.666 15.7573 10.666 16.1213C10.666 17.7463 10.072 19.1213 9.04598 20.0483C8.14498 20.8613 6.91098 21.3343 5.44198 21.3343C4.43929 21.3394 3.45461 21.0678 2.59628 20.5495C1.73795 20.0311 1.03923 19.2861 0.576978 18.3963C0.196928 17.6547 -0.00128174 16.8335 -0.00128174 16.0003C-0.00128174 15.167 0.196928 14.3458 0.576978 13.6043C1.03867 12.7153 1.73644 11.9708 2.59363 11.4525C3.45082 10.9342 4.43428 10.6621 5.43598 10.6663L5.44298 10.6673Z" fill="white"/>
</g>
<defs>
<clipPath id="clip0_521_1010">
<rect width="32" height="32" fill="white"/>
</clipPath>
</defs>
</svg>
