<svg width="32" height="32" viewBox="0 0 32 32" fill="none" xmlns="http://www.w3.org/2000/svg">
<path d="M15.272 22.6944C15.336 22.7491 15.4053 22.8037 15.4733 22.8571C14.1219 23.7542 12.5354 24.232 10.9133 24.2304C9.83209 24.2313 8.76128 24.019 7.76215 23.6057C6.76301 23.1924 5.85514 22.5862 5.09047 21.8218C4.32579 21.0574 3.71931 20.1497 3.3057 19.1507C2.89209 18.1517 2.67947 17.081 2.67999 15.9997C2.67985 14.5106 3.08361 13.0492 3.84825 11.7714C4.6129 10.4935 5.70982 9.44695 7.02218 8.74315C8.33455 8.03936 9.81322 7.70467 11.3007 7.77475C12.7883 7.84482 14.2289 8.31702 15.4693 9.14107C15.4027 9.1984 15.336 9.2504 15.2853 9.30907C14.3242 10.139 13.5531 11.1661 13.0244 12.3206C12.4957 13.4751 12.2218 14.7299 12.2213 15.9997C12.2213 18.5664 13.332 21.0064 15.272 22.6944ZM21.0867 7.76774C19.466 7.76459 17.8808 8.24255 16.532 9.14107C16.5973 9.1984 16.664 9.2504 16.7147 9.30907C18.664 10.9931 19.78 13.4344 19.78 15.9997C19.78 18.5651 18.6667 21.0037 16.7293 22.6944C16.664 22.7491 16.5947 22.8037 16.528 22.8571C17.8783 23.7545 19.464 24.2323 21.0853 24.2304C22.1751 24.2444 23.2568 24.0418 24.2677 23.6344C25.2785 23.2271 26.1984 22.623 26.974 21.8574C27.7496 21.0917 28.3655 20.1797 28.7858 19.1741C29.2062 18.1686 29.4227 17.0896 29.4228 15.9997C29.4228 14.9099 29.2065 13.8309 28.7863 12.8253C28.3661 11.8197 27.7505 10.9075 26.975 10.1417C26.1995 9.37593 25.2797 8.77175 24.2689 8.36423C23.2581 7.95671 22.1764 7.75396 21.0867 7.76774ZM16 9.53307C15.0197 10.3017 14.2274 11.2835 13.6831 12.4039C13.1388 13.5244 12.8569 14.7541 12.8587 15.9997C12.8561 17.2461 13.1377 18.4767 13.682 19.5979C14.2263 20.7191 15.0191 21.7015 16 22.4704C16.9807 21.7012 17.7733 20.7187 18.3178 19.5976C18.8623 18.4765 19.1444 17.2461 19.1427 15.9997C19.1445 14.7539 18.8624 13.5241 18.3179 12.4036C17.7733 11.2831 16.9806 10.3014 16 9.53307Z" fill="white"/>
</svg>
