<svg width="41" height="49" viewBox="0 0 41 49" fill="none" xmlns="http://www.w3.org/2000/svg">
<path fill-rule="evenodd" clip-rule="evenodd" d="M30.2033 26.7738C33.1793 26.7738 35.8755 28.0189 37.8297 30.0295C39.7905 32.0392 41 34.8193 41 37.8864C41 40.9546 39.7905 43.7346 37.8371 45.7443L37.7144 45.8611C35.7695 47.8028 33.1207 49 30.2033 49C27.2227 49 24.5228 47.755 22.5705 45.7443C20.6171 43.7346 19.4076 40.9546 19.4076 37.8864C19.4076 34.8183 20.6171 32.0392 22.5705 30.0295C24.5228 28.0189 27.2227 26.7738 30.2033 26.7738ZM22.6021 3.64423V8.82923C22.6941 10.0666 23.1134 11.0389 23.8497 11.6859C24.6121 12.3567 25.7519 12.7328 27.2608 12.7606L30.7863 12.7567L22.6021 3.64423ZM31.0819 15.1751L27.2422 15.1712C25.1513 15.1377 23.5039 14.5587 22.3241 13.5214C21.0941 12.439 20.4015 10.904 20.2611 9.00148L20.2508 8.83497V2.42024H5.84506C4.88374 2.42024 4.00889 2.82505 3.37669 3.4758C2.74449 4.12656 2.35122 5.02709 2.35122 6.01662V38.2185C2.35122 39.2042 2.74635 40.1047 3.37948 40.7565C4.01168 41.4072 4.88746 41.8139 5.84506 41.8139H16.9467C17.1828 42.6551 17.4924 43.4647 17.8689 44.2342H5.84506C4.23853 44.2342 2.77517 43.5566 1.71624 42.4676C0.658231 41.3775 0 39.8722 0 38.2185V6.01662C0 4.36485 0.658231 2.86045 1.71531 1.7714C2.77889 0.677552 4.24039 0 5.84506 0H22.0108C22.3929 0 22.7322 0.187571 22.947 0.478497L33.117 11.8036C33.3253 12.0361 33.4276 12.329 33.4276 12.6218L33.4303 24.0789C32.6698 23.8904 31.8852 23.7679 31.0819 23.7162V15.1751ZM9.721 20.3897C9.07206 20.3897 8.54585 19.8481 8.54585 19.1801C8.54585 18.5111 9.07206 17.9695 9.721 17.9695H23.7121C24.3611 17.9695 24.8882 18.5111 24.8882 19.1801C24.8882 19.8481 24.3611 20.3897 23.7121 20.3897H9.721ZM9.721 27.3088C9.07206 27.3088 8.54585 26.7671 8.54585 26.0982C8.54585 25.4302 9.07206 24.8885 9.721 24.8885H22.9712C23.3161 24.8885 23.6266 25.0417 23.8423 25.2857C22.8176 25.8355 21.8637 26.5152 21.003 27.3088H9.721ZM9.721 34.2278C9.07206 34.2278 8.54585 33.6862 8.54585 33.0172C8.54585 32.3493 9.07206 31.8076 9.721 31.8076H17.7351C17.3799 32.578 17.0889 33.3876 16.8714 34.2278H9.721ZM29.9309 41.5823L25.9509 42.6743L26.5245 38.2788L29.9309 41.5823ZM27.4021 37.2807L31.3106 32.6919C31.3757 32.6134 31.4724 32.5665 31.5728 32.5636C31.636 32.5617 31.6974 32.5751 31.7522 32.6057L34.7849 35.4432C34.8444 35.5006 34.8816 35.581 34.8825 35.6672C34.8853 35.7619 34.8463 35.8557 34.7756 35.9179L30.7965 40.5842L27.3975 37.2807H27.4021Z" fill="white"/>
</svg>
