<svg width="24" height="24" viewBox="0 0 24 24" fill="none" xmlns="http://www.w3.org/2000/svg">
<path d="M19.554 9.48824C19.675 10.0512 19.66 10.7342 19.514 11.5392C18.932 14.5172 17.037 16.0052 13.831 16.0052H13.389C13.2257 16.0043 13.0676 16.0633 12.945 16.1712C12.8179 16.2813 12.7334 16.4324 12.706 16.5982L12.665 16.7872L12.112 20.2662L12.091 20.4172C12.0625 20.5843 11.9748 20.7355 11.844 20.8432C11.7206 20.9518 11.5614 21.011 11.397 21.0092H8.874C8.81085 21.0126 8.74783 21.0007 8.69023 20.9746C8.63263 20.9485 8.58214 20.9089 8.543 20.8592C8.50325 20.8085 8.47468 20.7499 8.45917 20.6874C8.44366 20.6248 8.44156 20.5597 8.453 20.4962C8.514 20.1232 8.601 19.5582 8.72 18.8072C8.837 18.0572 8.926 17.4932 8.987 17.1182C9.048 16.7432 9.137 16.1802 9.259 15.4332C9.38 14.6852 9.471 14.1232 9.53 13.7482C9.563 13.5002 9.709 13.3772 9.963 13.3772H11.279C12.172 13.3902 12.961 13.3202 13.654 13.1662C14.826 12.9042 15.788 12.4222 16.54 11.7172C17.225 11.0802 17.743 10.2552 18.1 9.24424C18.262 8.77424 18.377 8.32724 18.452 7.90624C18.458 7.86524 18.466 7.84024 18.477 7.83224C18.485 7.82124 18.499 7.81824 18.512 7.82124C18.5337 7.83093 18.5545 7.84265 18.574 7.85624C19.098 8.25424 19.428 8.79724 19.554 9.48824ZM17.826 6.65224C17.826 7.36924 17.672 8.16024 17.361 9.02624C16.824 10.5882 15.814 11.6442 14.324 12.1942C13.566 12.4632 12.722 12.6022 11.789 12.6192C11.789 12.6252 11.488 12.6262 10.885 12.6262L9.982 12.6192C9.31 12.6192 8.915 12.9392 8.795 13.5832C8.782 13.6362 8.497 15.4132 7.94 18.9122C7.932 18.9782 7.892 19.0142 7.819 19.0142H4.854C4.78413 19.0157 4.71479 19.0017 4.65099 18.9731C4.58719 18.9446 4.5305 18.9023 4.485 18.8492C4.4378 18.797 4.40295 18.7349 4.38304 18.6674C4.36313 18.5998 4.35868 18.5287 4.37 18.4592L6.702 3.66424C6.73187 3.47492 6.83006 3.30309 6.978 3.18124C7.12225 3.05709 7.30669 2.98957 7.497 2.99124H13.511C13.739 2.99124 14.066 3.03524 14.49 3.12224C14.918 3.20624 15.291 3.31624 15.613 3.44324C16.331 3.71724 16.879 4.13124 17.258 4.68024C17.637 5.23224 17.826 5.88724 17.826 6.65224Z" fill="white"/>
</svg>
