<svg width="145" height="60" viewBox="0 0 145 60" fill="none" xmlns="http://www.w3.org/2000/svg">
<path fill-rule="evenodd" clip-rule="evenodd" d="M115.187 2.5C100.094 2.5 87.8583 14.8125 87.8583 30C87.8583 45.1875 100.094 57.5 115.187 57.5C130.28 57.5 142.516 45.1875 142.516 30C142.516 14.8125 130.28 2.5 115.187 2.5ZM109.704 21.7675C109.251 21.296 109.001 20.6645 109.007 20.009C109.012 19.3535 109.273 18.7265 109.734 18.263C110.195 17.7994 110.818 17.5365 111.469 17.5308C112.121 17.5251 112.748 17.7771 113.217 18.2325L123.154 28.2325C123.62 28.7013 123.882 29.3371 123.882 30C123.882 30.6629 123.62 31.2987 123.154 31.7675L113.217 41.7675C112.748 42.2229 112.121 42.4749 111.469 42.4692C110.818 42.4635 110.195 42.2006 109.734 41.737C109.273 41.2735 109.012 40.6465 109.007 39.991C109.001 39.3355 109.251 38.704 109.704 38.2325L117.885 30L109.704 21.7675Z" fill="#019DD6"/>
<g opacity="0.2">
<path fill-rule="evenodd" clip-rule="evenodd" d="M29.8131 2.5C44.9059 2.5 57.1417 14.8125 57.1417 30C57.1417 45.1875 44.9059 57.5 29.8131 57.5C14.7202 57.5 2.48441 45.1875 2.48441 30C2.48441 14.8125 14.7202 2.5 29.8131 2.5ZM35.2962 21.7675C35.7487 21.296 35.9992 20.6645 35.9935 20.009C35.9878 19.3535 35.7266 18.7265 35.2659 18.263C34.8053 17.7994 34.1822 17.5365 33.5308 17.5308C32.8793 17.5251 32.2518 17.7771 31.7832 18.2325L21.8455 28.2325C21.3798 28.7013 21.1181 29.3371 21.1181 30C21.1181 30.6629 21.3798 31.2987 21.8455 31.7675L31.7832 41.7675C32.2518 42.2229 32.8793 42.4749 33.5308 42.4692C34.1822 42.4635 34.8053 42.2006 35.2659 41.737C35.7266 41.2735 35.9878 40.6465 35.9935 39.991C35.9992 39.3355 35.7487 38.704 35.2962 38.2325L27.115 30L35.2962 21.7675Z" fill="#019DD6"/>
</g>
</svg>
