<svg width="56" height="57" viewBox="0 0 56 57" fill="none" xmlns="http://www.w3.org/2000/svg">
<g clip-path="url(#clip0_521_868)">
<path d="M3.98884 19.6812C5.34722 14.3628 8.3213 9.67547 12.3699 6.21482C16.6472 2.55826 22.1282 0.259693 28.1735 0.0203747C35.3498 -0.262355 41.965 2.41467 46.8574 6.97396C51.7486 11.531 54.916 17.9681 55.1976 25.2011C55.3036 27.916 54.9988 30.5429 54.3428 33.0196C53.8103 35.0204 53.0429 36.9501 52.0568 38.7676C51.611 38.0689 51.0328 37.4658 50.3553 36.9929C49.6778 36.5199 48.9143 36.1864 48.1086 36.0116C48.7878 34.6781 49.3345 33.2589 49.7287 31.7773C50.2688 29.7381 50.5195 27.5909 50.4344 25.3881C50.2047 19.4741 47.6183 14.2136 43.626 10.4947C39.6336 6.77471 34.2277 4.58968 28.3602 4.82121C23.4269 5.01711 18.9498 6.89493 15.4534 9.88584C12.2573 12.6185 9.88068 16.2806 8.7244 20.4325L10.8227 20.7676C11.503 20.8733 11.9702 21.5167 11.8641 22.2013C11.8189 22.5018 11.6698 22.76 11.461 22.947L5.86848 27.9672C5.35274 28.4291 4.56201 28.3835 4.10369 27.8636C4.02639 27.7768 3.96454 27.6833 3.91595 27.5842L0.171015 21.1527C-0.176864 20.5539 0.0230283 19.7836 0.616078 19.4319C0.877815 19.2771 1.17268 19.2304 1.45099 19.2771L3.98884 19.6812ZM12.1192 51.7075V36.4624C19.5826 36.4624 20.8493 36.1229 27.5761 40.3894H32.8616C35.2537 40.533 36.5072 42.9785 34.1813 44.5847C32.3293 45.955 29.8831 45.8771 27.3762 45.65C25.6467 45.5632 25.5738 47.9051 27.3762 47.9129C28.0035 47.9619 28.6827 47.8139 29.2757 47.8139C32.4022 47.8094 34.9798 47.2061 36.5569 44.7161L37.3476 42.855L45.2096 38.9279C49.1423 37.6234 51.9408 41.7686 49.0407 44.6549C43.3454 48.8301 37.5066 52.2652 31.5342 55.0402C27.1962 57.6994 22.8571 57.6081 18.5224 55.0402L12.1192 51.7075ZM0.468091 34.9964H10.0706V53.2391H0.468091V34.9964ZM28.4021 37.5788C26.7588 36.0795 26.5744 33.5249 28.0112 31.7996C29.4822 30.032 32.0952 29.8027 33.8489 31.2853C35.6016 32.768 35.8302 35.4027 34.3591 37.1692C34.1935 37.3672 34.0106 37.5497 33.8125 37.7146C32.0654 37.364 30.125 37.5755 28.4021 37.5788ZM17.3341 33.6874L21.7869 12.5773L39.5663 16.6068L39.0638 18.9877L26.3613 16.1092L26.1956 16.0669C24.9631 15.8009 23.7483 16.5945 23.4855 17.839L23.2425 18.9888L23.205 18.981L22.0873 24.462L20.0906 33.9323C19.2325 33.792 18.3402 33.7219 17.3341 33.6874ZM21.8322 34.3308L25.3408 17.6976L43.1191 21.7271L39.5563 38.6229L37.246 39.7772C37.0472 39.5101 36.8197 39.2607 36.5668 39.0326L39.0428 26.8741C37.5928 26.5468 36.6783 25.0887 37.0041 23.6338L29.9726 22.0465C29.6479 23.5081 28.2023 24.4286 26.7588 24.1013L24.4617 35.3738C23.5175 34.9152 22.666 34.579 21.8322 34.3308Z" fill="white"/>
</g>
<defs>
<clipPath id="clip0_521_868">
<rect width="55.2188" height="57" fill="white"/>
</clipPath>
</defs>
</svg>
