<svg width="61" height="61" viewBox="0 0 61 61" fill="none" xmlns="http://www.w3.org/2000/svg">
<path d="M30.5 29.2801C28.67 29.2801 27.45 30.5001 27.45 32.3301C27.45 33.5501 28.365 34.4651 29.28 34.7701L28.365 39.0401H32.33L31.415 34.7701C32.635 34.4651 33.245 33.5501 33.245 32.3301C33.55 30.5001 32.33 29.2801 30.5 29.2801ZM30.805 16.1651C28.67 16.1651 26.535 17.6901 26.535 19.8251V24.4001H34.77V19.8251C34.465 17.6901 32.94 16.1651 30.805 16.1651ZM30.5 6.1001L9.15002 15.2501V24.4001C9.45502 37.8201 17.995 49.7151 30.5 54.5951C43.005 49.7151 51.545 37.8201 51.85 24.4001V15.2501L30.5 6.1001ZM42.7 39.6501C42.7 41.4801 41.48 42.7001 39.65 42.7001H21.35C19.52 42.7001 18.3 41.4801 18.3 39.6501V27.4501C18.3 25.6201 19.52 24.4001 21.35 24.4001H22.265V19.8251C22.57 15.5551 26.23 12.2001 30.5 12.2001C34.77 12.2001 38.43 15.5551 38.735 19.8251V24.4001H39.65C41.48 24.4001 42.7 25.6201 42.7 27.4501V39.6501Z" fill="white"/>
</svg>
