<svg width="32" height="32" viewBox="0 0 32 32" fill="none" xmlns="http://www.w3.org/2000/svg">
<g clip-path="url(#clip0_521_1012)">
<path d="M29.6293 21.0245L29.3293 19.5245H25.9773L25.444 21.0138L22.7573 21.0191C24.0364 17.9433 25.3181 14.8687 26.6027 11.7951C26.8213 11.2738 27.2093 11.0085 27.7813 11.0111C28.2187 11.0151 28.932 11.0151 29.9227 11.0125L32 21.0205L29.6293 21.0245ZM26.732 17.4698H28.892L28.0853 13.7098L26.732 17.4698ZM9.41333 11.0098L12.1147 11.0125L7.93867 21.0258L5.204 21.0231C4.51633 18.3782 3.83722 15.7311 3.16667 13.0818C3.03333 12.5538 2.76933 12.1845 2.26133 12.0098C1.51097 11.7584 0.757115 11.5175 0 11.2871L0 11.0138H4.316C5.06267 11.0138 5.49867 11.3751 5.63867 12.1165C5.78 12.8591 6.13467 14.7498 6.70533 17.7885L9.41333 11.0098ZM15.8267 11.0125L13.6907 21.0231L11.12 21.0205L13.2533 11.0098L15.8267 11.0125ZM21.04 10.8271C21.8093 10.8271 22.7787 11.0671 23.336 11.2871L22.8853 13.3631C22.3813 13.1605 21.552 12.8871 20.8547 12.8965C19.8413 12.9138 19.2147 13.3391 19.2147 13.7471C19.2147 14.4111 20.3027 14.7458 21.4227 15.4711C22.7013 16.2978 22.8693 17.0405 22.8533 17.8471C22.836 19.5218 21.4227 21.1738 18.4413 21.1738C17.0813 21.1538 16.5907 21.0391 15.4813 20.6458L15.9507 18.4791C17.08 18.9525 17.5587 19.1031 18.524 19.1031C19.408 19.1031 20.1667 18.7458 20.1733 18.1231C20.1787 17.6805 19.9067 17.4605 18.9147 16.9138C17.9227 16.3658 16.5307 15.6071 16.5493 14.0845C16.572 12.1351 18.4187 10.8271 21.0413 10.8271H21.04Z" fill="white"/>
</g>
<defs>
<clipPath id="clip0_521_1012">
<rect width="32" height="32" fill="white"/>
</clipPath>
</defs>
</svg>
