<svg width="31" height="31" viewBox="0 0 31 31" fill="none" xmlns="http://www.w3.org/2000/svg">
<path d="M15.8892 1.97357C15.7557 1.98033 15.6222 1.95984 15.4968 1.91334C15.3714 1.86684 15.2568 1.79529 15.1599 1.70305C15.063 1.61081 14.9859 1.49981 14.9331 1.37679C14.8804 1.25376 14.8532 1.12129 14.8532 0.987414C14.8532 0.853542 14.8804 0.721067 14.9331 0.598043C14.9859 0.475018 15.063 0.364014 15.1599 0.271775C15.2568 0.179537 15.3714 0.107992 15.4968 0.0614885C15.6222 0.0149851 15.7557 -0.00550532 15.8892 0.00126274C19.2165 0.00101725 22.4508 1.10047 25.0902 3.129C27.7296 5.15752 29.6265 8.00168 30.4865 11.2201C31.3465 14.4385 31.1215 17.8511 29.8465 20.9284C28.5715 24.0057 26.3177 26.5755 23.4349 28.239C20.5521 29.9026 17.2015 30.5668 13.9032 30.1287C10.6048 29.6905 7.54315 28.1745 5.19328 25.8158C2.8434 23.4572 1.33676 20.3878 0.907167 17.0841C0.477574 13.7804 1.14906 10.427 2.8174 7.5445L1.73796 7.95866C1.41991 8.07955 1.06691 8.06898 0.756642 7.92927C0.446369 7.78956 0.204231 7.53215 0.0834964 7.21368C-0.0372383 6.8952 -0.0266802 6.54175 0.112848 6.23107C0.252376 5.92039 0.509445 5.67794 0.827503 5.55705L4.16166 4.29437C4.28865 4.24699 4.42224 4.21973 4.55762 4.21356C4.86273 4.16367 5.17555 4.22661 5.43773 4.39063C5.69992 4.55465 5.89357 4.80856 5.98258 5.10501L7.02924 8.51171C7.08356 8.6741 7.10479 8.84575 7.09169 9.0165C7.07858 9.18725 7.03139 9.35364 6.95293 9.5058C6.87446 9.65797 6.7663 9.79283 6.63485 9.9024C6.5034 10.012 6.35134 10.094 6.18766 10.1437C6.02398 10.1934 5.85202 10.2097 5.68194 10.1916C5.51186 10.1735 5.34713 10.1215 5.19749 10.0386C5.04786 9.95562 4.91636 9.84346 4.81078 9.70873C4.70521 9.574 4.6277 9.41943 4.58284 9.25417L4.41639 8.71122C2.8696 11.483 2.37649 14.7216 3.02808 17.829C3.67966 20.9365 5.43195 23.703 7.96147 25.6178C10.491 27.5327 13.6269 28.4666 16.7904 28.2472C19.9538 28.0277 22.9312 26.6698 25.1729 24.424C27.0091 22.5848 28.2595 20.2418 28.7661 17.6912C29.2728 15.1406 29.0129 12.4969 28.0193 10.0941C27.0257 7.69139 25.3431 5.63752 23.184 4.19212C21.0249 2.74672 18.4864 1.97468 15.8892 1.97357ZM12.3331 16.3681C11.5008 15.4716 12.777 14.1332 13.7026 14.9791C14.0305 15.2771 14.5046 15.714 14.8325 16.0095L18.033 12.2215C18.9182 11.3073 20.3028 12.6508 19.4403 13.5725L15.5916 18.0348C15.4161 18.2188 15.1762 18.3276 14.9223 18.3384C14.6685 18.3492 14.4202 18.2613 14.2297 18.0929C13.69 17.5878 12.8981 16.8302 12.3306 16.3605L12.3331 16.3681ZM10.1692 8.48898C10.0568 8.29308 10.0268 8.0605 10.0857 7.8424C10.1445 7.62431 10.2875 7.43858 10.4832 7.32606C10.6788 7.21354 10.9111 7.18345 11.1289 7.24241C11.3467 7.30137 11.5322 7.44456 11.6446 7.64046L12.0658 8.37282C12.1711 8.56793 12.1961 8.79649 12.1356 9.00984C12.0751 9.22318 11.9339 9.40445 11.7419 9.51504C11.5499 9.62564 11.3224 9.65683 11.1078 9.60198C10.8932 9.54712 10.7084 9.41054 10.5929 9.22134L10.1692 8.48898ZM7.64714 11.9058C7.55026 11.8496 7.46539 11.7748 7.39737 11.6858C7.32935 11.5967 7.27952 11.4951 7.25071 11.3868C7.22191 11.2784 7.21469 11.1655 7.22949 11.0543C7.24428 10.9432 7.28079 10.8361 7.33693 10.7391C7.39306 10.6421 7.46773 10.5571 7.55667 10.489C7.64561 10.4209 7.74708 10.371 7.85527 10.3421C7.96347 10.3133 8.07628 10.3061 8.18727 10.3209C8.29825 10.3357 8.40524 10.3722 8.50212 10.4285L9.24108 10.8603C9.33795 10.9165 9.42282 10.9913 9.49084 11.0803C9.55886 11.1694 9.6087 11.271 9.6375 11.3793C9.66631 11.4877 9.67352 11.6006 9.65873 11.7117C9.64394 11.8229 9.60743 11.93 9.55129 12.027C9.49515 12.124 9.42048 12.209 9.33154 12.2771C9.24261 12.3452 9.14114 12.3951 9.03294 12.424C8.81443 12.4822 8.58175 12.4512 8.3861 12.3376L7.6547 11.9134L7.64714 11.9058ZM8.88295 20.593C8.68809 20.6984 8.45982 20.7235 8.24676 20.663C8.0337 20.6024 7.85267 20.4609 7.74221 20.2687C7.63176 20.0765 7.60061 19.8486 7.65539 19.6338C7.71018 19.4189 7.84657 19.2339 8.03554 19.1182L8.77702 18.6889C8.97267 18.5764 9.20495 18.5463 9.42275 18.6052C9.64056 18.6642 9.82605 18.8074 9.93843 19.0033C10.0508 19.1992 10.0808 19.4318 10.022 19.6499C9.96308 19.868 9.82008 20.0537 9.62443 20.1662L8.89051 20.588L8.88295 20.593ZM6.91827 15.9767C6.69285 15.9767 6.47667 15.887 6.31727 15.7274C6.15788 15.5678 6.06833 15.3513 6.06833 15.1256C6.06833 14.8999 6.15788 14.6834 6.31727 14.5238C6.47667 14.3642 6.69285 14.2746 6.91827 14.2746H7.76568C7.99109 14.2746 8.20728 14.3642 8.36667 14.5238C8.52606 14.6834 8.61561 14.8999 8.61561 15.1256C8.61561 15.3513 8.52606 15.5678 8.36667 15.7274C8.20728 15.887 7.99109 15.9767 7.76568 15.9767H6.91827ZM16.4466 23.8053C16.4347 24.0233 16.3399 24.2285 16.1816 24.3786C16.0232 24.5288 15.8135 24.6124 15.5954 24.6124C15.3773 24.6124 15.1676 24.5288 15.0092 24.3786C14.8509 24.2285 14.7561 24.0233 14.7442 23.8053V22.9668C14.7561 22.7488 14.8509 22.5436 15.0092 22.3935C15.1676 22.2434 15.3773 22.1597 15.5954 22.1597C15.8135 22.1597 16.0232 22.2434 16.1816 22.3935C16.3399 22.5436 16.4347 22.7488 16.4466 22.9668V23.8128V23.8053ZM14.7442 6.43082C14.7379 6.31499 14.7552 6.19909 14.7952 6.0902C14.8351 5.98131 14.8968 5.88171 14.9764 5.79748C15.0561 5.71326 15.1521 5.64617 15.2585 5.60033C15.3649 5.55448 15.4795 5.53084 15.5954 5.53084C15.7112 5.53084 15.8259 5.55448 15.9323 5.60033C16.0387 5.64617 16.1347 5.71326 16.2143 5.79748C16.294 5.88171 16.3557 5.98131 16.3956 6.0902C16.4355 6.19909 16.4529 6.31499 16.4466 6.43082V7.27681C16.4347 7.49484 16.3399 7.70002 16.1816 7.85016C16.0232 8.0003 15.8135 8.08397 15.5954 8.08397C15.3773 8.08397 15.1676 8.0003 15.0092 7.85016C14.8509 7.70002 14.7561 7.49484 14.7442 7.27681V6.43839V6.43082ZM11.9952 23.0754C11.9426 23.1785 11.8697 23.2699 11.7808 23.3439C11.6919 23.4179 11.5889 23.473 11.4781 23.5059C11.3673 23.5388 11.2509 23.5488 11.1361 23.5352C11.0213 23.5217 10.9105 23.4849 10.8103 23.4272C10.7101 23.3694 10.6228 23.2918 10.5535 23.1992C10.4842 23.1065 10.4344 23.0007 10.4073 22.8882C10.3801 22.7757 10.376 22.6588 10.3954 22.5447C10.4147 22.4306 10.457 22.3216 10.5198 22.2244L10.9435 21.492C10.9994 21.3952 11.0739 21.3104 11.1626 21.2423C11.2514 21.1743 11.3526 21.1245 11.4606 21.0956C11.5685 21.0668 11.6811 21.0595 11.7919 21.0742C11.9026 21.0889 12.0094 21.1254 12.1061 21.1814C12.2028 21.2375 12.2876 21.312 12.3555 21.4009C12.4234 21.4897 12.4732 21.5911 12.502 21.6992C12.5308 21.8073 12.5381 21.92 12.5234 22.0309C12.5087 22.1418 12.4723 22.2488 12.4163 22.3456L11.9952 23.078V23.0754ZM21.0569 22.2244C21.1125 22.3214 21.1486 22.4284 21.1629 22.5394C21.1772 22.6503 21.1696 22.763 21.1404 22.871C21.1113 22.979 21.0612 23.0801 20.993 23.1687C20.9248 23.2573 20.8398 23.3316 20.7429 23.3873C20.646 23.443 20.5391 23.4791 20.4284 23.4934C20.3176 23.5078 20.205 23.5002 20.0972 23.471C19.9893 23.4418 19.8883 23.3916 19.7998 23.3233C19.7113 23.255 19.6371 23.1699 19.5815 23.0729L19.1679 22.3406C19.0555 22.1447 19.0255 21.9121 19.0843 21.694C19.1432 21.4759 19.2862 21.2902 19.4819 21.1776C19.6775 21.0651 19.9098 21.035 20.1276 21.094C20.3454 21.1529 20.5309 21.2961 20.6433 21.492L21.0569 22.2244ZM23.5361 19.1182C23.7314 19.2314 23.8738 19.4176 23.932 19.636C23.9902 19.8543 23.9593 20.0868 23.8463 20.2824C23.7333 20.478 23.5473 20.6206 23.3292 20.6788C23.1112 20.7371 22.8789 20.7062 22.6836 20.593L21.9421 20.1713C21.7458 20.0567 21.603 19.8688 21.545 19.6488C21.4871 19.4289 21.5188 19.1948 21.6332 18.9983C21.7476 18.8017 21.9353 18.6586 22.155 18.6006C22.3747 18.5426 22.6084 18.5744 22.8047 18.6889L23.5361 19.1132V19.1182ZM23.072 10.4285C23.2677 10.3159 23.5 10.2858 23.7178 10.3448C23.9356 10.4038 24.1211 10.547 24.2334 10.7429C24.3458 10.9388 24.3759 11.1714 24.317 11.3894C24.2581 11.6075 24.1151 11.7933 23.9194 11.9058L23.188 12.3301C22.9949 12.4228 22.774 12.439 22.5694 12.3756C22.3648 12.3123 22.1916 12.1739 22.0845 11.9881C21.9775 11.8024 21.9444 11.5831 21.9918 11.374C22.0393 11.1649 22.1639 10.9814 22.3406 10.8603L23.072 10.436V10.4285ZM20.101 7.95866C20.2144 7.76275 20.4009 7.61997 20.6194 7.56172C20.8379 7.50346 21.0706 7.53452 21.2662 7.64804C21.4619 7.76157 21.6045 7.94826 21.6627 8.16707C21.7208 8.38587 21.6898 8.61885 21.5764 8.81476L21.1527 9.54711C21.0966 9.64444 21.0219 9.72975 20.9328 9.79817C20.8437 9.86658 20.7421 9.91676 20.6337 9.94584C20.5252 9.97492 20.4121 9.98232 20.3008 9.96764C20.1896 9.95295 20.0822 9.91646 19.985 9.86025C19.8878 9.80404 19.8026 9.72921 19.7343 9.64002C19.666 9.55084 19.6159 9.44906 19.5868 9.34049C19.5578 9.23191 19.5504 9.11867 19.5651 9.00724C19.5797 8.8958 19.6162 8.78835 19.6723 8.69101L20.0935 7.95866H20.101ZM24.8551 14.272C25.0805 14.272 25.2967 14.3617 25.4561 14.5213C25.6155 14.6809 25.7051 14.8974 25.7051 15.1231C25.7051 15.3488 25.6155 15.5653 25.4561 15.7249C25.2967 15.8845 25.0805 15.9741 24.8551 15.9741H23.9598C23.7344 15.9741 23.5182 15.8845 23.3588 15.7249C23.1994 15.5653 23.1099 15.3488 23.1099 15.1231C23.1099 14.8974 23.1994 14.6809 23.3588 14.5213C23.5182 14.3617 23.7344 14.272 23.9598 14.272H24.8551Z" fill="white"/>
</svg>
