<svg width="53" height="53" viewBox="0 0 53 53" fill="none" xmlns="http://www.w3.org/2000/svg">
<path d="M26.5 4.41663C14.3232 4.41663 4.41663 14.3232 4.41663 26.5V35.6491C4.41663 37.9104 6.3975 39.75 8.83329 39.75H11.0416C11.6273 39.75 12.189 39.5173 12.6032 39.1032C13.0173 38.689 13.25 38.1273 13.25 37.5416V26.1842C13.25 25.5985 13.0173 25.0368 12.6032 24.6226C12.189 24.2085 11.6273 23.9758 11.0416 23.9758H9.03646C10.2643 15.4296 17.618 8.83329 26.5 8.83329C35.3819 8.83329 42.7356 15.4296 43.9635 23.9758H41.9583C41.3726 23.9758 40.8109 24.2085 40.3968 24.6226C39.9826 25.0368 39.75 25.5985 39.75 26.1842V39.75C39.75 42.1858 37.7691 44.1666 35.3333 44.1666H30.9166V41.9583H22.0833V48.5833H35.3333C40.2049 48.5833 44.1666 44.6215 44.1666 39.75C46.6024 39.75 48.5833 37.9104 48.5833 35.6491V26.5C48.5833 14.3232 38.6767 4.41663 26.5 4.41663Z" fill="white"/>
</svg>
