<svg width="40" height="40" viewBox="0 0 40 40" fill="none" xmlns="http://www.w3.org/2000/svg">
<path d="M9.9134 20.5528C9.89806 20.5138 9.88272 20.4617 9.87505 20.4161C9.79069 19.801 9.71017 19.1208 9.63731 18.535C9.53761 17.6758 9.42641 16.6832 9.34588 15.9867C9.2922 15.5148 9.11581 15.0657 8.85889 14.7305C8.68634 14.5157 8.49461 14.3562 8.27988 14.2781C8.10732 14.2195 7.89642 14.213 7.67785 14.2846C7.37876 14.3822 7.04515 14.5873 6.6732 14.9453C6.34343 15.2642 6.08651 15.6905 5.87178 16.1429C5.56885 16.8036 5.38863 17.5066 5.31577 17.9882C5.3081 18.0208 5.3081 18.0468 5.29276 18.0729L3.22977 28.0122C3.1991 28.1424 3.13774 28.2596 3.04571 28.3507C2.35166 29.109 1.91452 29.7599 1.78798 30.2871C1.69595 30.6744 1.78798 30.9869 2.09091 31.231L9.68332 37.6749C10.1665 38.0687 10.7263 38.3161 11.3974 38.4202C12.1298 38.5374 12.9849 38.4723 13.9665 38.2445C13.9819 38.2445 14.0049 38.238 14.0202 38.238C14.3922 38.1534 14.8791 38.0525 15.347 37.9516C17.3831 37.5317 19.1585 37.1607 20.8035 35.8915L22.9202 34.0168C22.9394 33.9843 22.9739 33.9583 23.0046 33.9322C23.0352 33.9062 23.2423 33.7304 23.5222 33.5059C24.9717 32.305 26.7624 30.8209 25.6734 29.5223L24.826 28.8031C24.4157 29.1415 23.9785 29.4702 23.5606 29.7859C23.1771 30.0723 22.8205 30.336 22.4946 30.6158C22.1456 30.912 21.5819 30.912 21.2292 30.6158C20.8802 30.3164 20.8802 29.8413 21.2292 29.5419C21.5589 29.262 21.9616 28.9593 22.3795 28.6436C23.8136 27.5696 25.4587 26.3426 24.5767 25.2654L23.737 24.5526C23.6909 24.5136 23.6526 24.468 23.6181 24.4225C23.1349 24.8423 22.6058 25.2426 22.0843 25.6332C21.7008 25.9196 21.3442 26.1832 21.0183 26.4631C20.6693 26.7592 20.1056 26.7592 19.7529 26.4631C19.4001 26.1669 19.4039 25.6885 19.7529 25.3891C20.0826 25.1092 20.4853 24.8065 20.9032 24.4908C22.3373 23.4168 23.9824 22.1899 23.1004 21.1126L22.2607 20.3999C22.1993 20.3478 22.1533 20.299 22.1149 20.2371L19.6532 22.3265C19.3042 22.6227 18.7405 22.6227 18.3878 22.3265C18.035 22.0304 18.0388 21.552 18.3878 21.2525L24.9909 15.6385C26.0952 14.7012 26.3483 13.7248 26.0569 12.986C25.9495 12.7159 25.7731 12.4751 25.5545 12.2896C25.336 12.104 25.0522 11.9543 24.7339 11.8632C23.875 11.6224 22.7285 11.8437 21.5934 12.807L10.0131 22.6357C9.66415 22.9319 9.10047 22.9319 8.74769 22.6357C8.39491 22.3396 8.39875 21.8611 8.74769 21.5617L9.9249 20.5626L9.9134 20.5528ZM31.9161 7.9122C31.4482 8.33529 30.6737 8.34831 30.1828 7.95777C29.6843 7.56071 29.669 6.9033 30.1292 6.48672L33.5112 3.43071C33.979 3.00762 34.7575 2.9946 35.2444 3.38514C35.7429 3.7822 35.7583 4.43961 35.2981 4.85619L31.9161 7.9122ZM16.8578 7.6974C17.3563 8.09446 17.3716 8.75513 16.9115 9.16846C16.4436 9.59155 15.6652 9.60456 15.1782 9.21402L11.5738 6.34352C11.0791 5.94321 11.0638 5.28579 11.5201 4.87247C11.9879 4.44938 12.7663 4.43636 13.2533 4.8269L16.8578 7.6974ZM24.4233 5.19467C24.4425 5.76746 23.9095 6.24914 23.2385 6.26866C22.5674 6.28819 21.9961 5.83255 21.9731 5.26301L21.8235 1.07442C21.8005 0.504879 22.3373 0.0199528 23.0084 0.000425625C23.6833 -0.0158471 24.2508 0.436533 24.27 1.00608L24.4233 5.19467ZM29.4811 20.6049C28.9826 20.2078 28.9673 19.5472 29.4274 19.1338C29.8952 18.7108 30.6698 18.6977 31.1606 19.0883L34.7613 21.9588C35.2598 22.3558 35.2751 23.0133 34.815 23.4298C34.3472 23.8529 33.5726 23.8659 33.0818 23.4754L29.4811 20.6049ZM33.8832 14.4343C33.2121 14.4538 32.6408 13.9982 32.6178 13.4286C32.5986 12.8591 33.1316 12.3742 33.8027 12.3546L38.7339 12.2147C39.4049 12.1952 39.9763 12.6508 39.9993 13.2204C40.0223 13.7899 39.4855 14.2748 38.8144 14.2943L33.8832 14.4343ZM23.3458 19.1924C23.411 19.225 23.4762 19.264 23.5376 19.3161L24.4157 20.0614C24.4617 20.1004 24.5077 20.1525 24.546 20.1981C25.5315 21.3437 25.3781 22.3656 24.7071 23.2964C24.826 23.3355 24.9448 23.3908 25.0369 23.4721L25.915 24.2174C25.961 24.2565 26.007 24.3086 26.0454 24.3541C27.1037 25.5908 26.8391 26.6714 26.0454 27.6542C26.0837 27.6705 26.1105 27.6998 26.1527 27.7323L27.0308 28.4776C27.0768 28.5167 27.1229 28.5687 27.1612 28.6143C29.1974 30.9771 26.7701 32.9819 24.8221 34.5994L24.3198 35.0257L22.1456 36.9622L22.0766 37.0175C20.0865 38.5504 18.1155 38.9605 15.8339 39.4324C15.4505 39.5105 15.067 39.5951 14.5302 39.7123C14.5149 39.7123 14.5072 39.7188 14.4919 39.7188C13.2571 40.0052 12.1374 40.0735 11.1328 39.9206C10.1128 39.7644 9.22701 39.3771 8.48694 38.762L0.886862 32.3147C0.119952 31.6866 -0.144632 30.912 0.0739371 29.991C0.238823 29.2555 0.744984 28.4386 1.5349 27.5598L3.56721 17.8158V17.7767C3.65924 17.2202 3.86631 16.3968 4.22292 15.6027C4.49517 15.0071 4.86329 14.4245 5.34261 13.9526C5.92163 13.3961 6.49298 13.0544 7.05665 12.8721C7.75071 12.6476 8.41409 12.6768 9.00077 12.8916C9.54911 13.0869 10.0131 13.4417 10.3659 13.894C10.7953 14.4375 11.0753 15.1308 11.152 15.8533C11.2133 16.4489 11.336 17.4317 11.4511 18.3951L11.5431 19.1989L20.3242 11.7395C22.0114 10.3075 23.8367 10.0244 25.2976 10.4312C25.8843 10.5939 26.402 10.8641 26.8314 11.2286C27.2609 11.5931 27.5792 12.0324 27.7709 12.5304C28.2541 13.7671 27.9243 15.3391 26.2678 16.745L23.3573 19.2152L23.3458 19.1924Z" fill="white"/>
</svg>
